<?xml version="1.0" standalone="no"?>
<!DOCTYPE svg PUBLIC "-//W3C//DTD SVG 1.1//EN" "http://www.w3.org/Graphics/SVG/1.1/DTD/svg11.dtd" >
<svg xmlns="http://www.w3.org/2000/svg">
<metadata>Generated by IcoMoon</metadata>
<defs>
<font id="icomoon" horiz-adv-x="1024">
<font-face units-per-em="1024" ascent="960" descent="-64" />
<missing-glyph horiz-adv-x="1024" />
<glyph unicode="&#x20;" horiz-adv-x="512" d="" />
<glyph unicode="&#xe900;" glyph-name="select" d="M857.751 252.235l-662.588 699.934c-4.789 4.756-11.388 7.695-18.673 7.695s-13.884-2.939-18.674-7.697l0.002 0.002c-4.366-4.534-7.097-10.67-7.228-17.443v-963.79c0.13-11.949 7.805-22.073 18.479-25.841l0.194-0.060c2.657-0.981 5.726-1.549 8.928-1.549 8.633 0 16.303 4.128 21.142 10.518l0.048 0.066 236.725 330.089 396.951-77.704c1.64-0.378 3.523-0.595 5.456-0.595 10.030 0 18.696 5.837 22.789 14.299l0.066 0.151c2.182 3.87 3.468 8.496 3.468 13.423 0 7.123-2.688 13.618-7.105 18.527l0.022-0.025z" />
<glyph unicode="&#xe901;" glyph-name="trash" horiz-adv-x="1027" d="M972.8 806.4h-921.6c-28.277 0-51.2-22.923-51.2-51.2s22.923-51.2 51.2-51.2h102.4v-617.412c2.016-83.399 69.947-150.275 153.57-150.588h409.63c0.729-0.012 1.589-0.019 2.451-0.019 83.9 0 152.149 67.005 154.157 150.421l0.004 0.187v617.412h102.4c28.277 0 51.2 22.923 51.2 51.2s-22.923 51.2-51.2 51.2v0zM460.8 243.2c0-0.037 0-0.081 0-0.126 0-14.091-5.76-26.836-15.054-36.010l-0.005-0.005c-9.276-9.221-22.029-14.953-36.121-15.059h-0.020c-28.277 0-51.2 22.923-51.2 51.2v0 256c0 28.277 22.923 51.2 51.2 51.2v0c14.112-0.106 26.865-5.838 36.144-15.061l-0.003 0.003c9.299-9.179 15.059-21.925 15.059-36.016 0-0.044 0-0.088 0-0.132v0.007zM665.6 243.2c0-28.277-22.923-51.2-51.2-51.2v0c-14.112 0.106-26.865 5.838-36.144 15.061l0.003-0.003c-9.299 9.179-15.059 21.925-15.059 36.016 0 0.044 0 0.088 0 0.132v-0.007 256c0 0.037 0 0.081 0 0.126 0 14.091 5.76 26.836 15.054 36.010l0.005 0.005c9.276 9.221 22.029 14.953 36.121 15.059h0.020c28.277 0 51.2-22.923 51.2-51.2v0zM409.6 857.6h204.8c28.277 0 51.2 22.923 51.2 51.2s-22.923 51.2-51.2 51.2h-204.8c-28.277 0-51.2-22.923-51.2-51.2s22.923-51.2 51.2-51.2v0z" />
<glyph unicode="&#xe902;" glyph-name="preview-photo" d="M235.947 676.267h597.333c23.564 0 42.667-19.103 42.667-42.667v-426.667c0-23.564-19.103-42.667-42.667-42.667h-597.333c-23.564 0-42.667 19.103-42.667 42.667v426.667c0 23.564 19.103 42.667 42.667 42.667zM961.28 718.933v-128h85.333v128c0 70.692-57.308 128-128 128v0h-150.613v-85.333h149.333c0.381 0.012 0.83 0.019 1.28 0.019 23.564 0 42.667-19.103 42.667-42.667 0-0.007 0-0.014 0-0.020v0.001zM961.28 249.6v-128c0-23.564-19.103-42.667-42.667-42.667v0h-150.613v-85.333h149.333c70.692 0 128 57.308 128 128v0 128zM107.947 590.933v128c0 23.564 19.103 42.667 42.667 42.667v0h148.053v85.333h-148.053c-70.692 0-128-57.308-128-128v0-128zM107.947 121.6v128h-85.333v-128c0-70.692 57.308-128 128-128v0h148.053v85.333h-148.053c-23.564 0-42.667 19.103-42.667 42.667v0z" />
<glyph unicode="&#xe903;" glyph-name="save" d="M325.242 364.13h378.88v-379.368h-378.88v379.368zM1013.76 699.611l-244.785 244.785c-10.728 9.752-24.381 15.604-39.010 15.604h-675.352c-0.145 0.001-0.316 0.002-0.488 0.002-29.893 0-54.126-24.233-54.126-54.126 0-0.001 0-0.002 0-0.002v0-867.474c0.276-29.682 24.402-53.638 54.124-53.638 0.001 0 0.002 0 0.002 0h162.377v433.493c0 0.001 0 0.001 0 0.002 0 29.893 24.233 54.126 54.126 54.126 0.171 0 0.343-0.001 0.514-0.002h487.593c29.682-0.276 53.638-24.402 53.638-54.124 0-0.001 0-0.002 0-0.002v0-433.493h162.865c29.893 0 54.126 24.233 54.126 54.126v0 622.202c0 14.629-5.851 27.794-15.604 38.522zM758.735 580.632h-487.619c-29.893 0-54.126 24.233-54.126 54.126s24.233 54.126 54.126 54.126v0h487.619c29.893 0 54.126-24.233 54.126-54.126s-24.233-54.126-54.126-54.126v0z" />
<glyph unicode="&#xe904;" glyph-name="search-minus" d="M1007.502 27.022l-196.836 216.178c60.871 75.662 96.711 170.667 96.711 273.067-3.203 245.756-203.173 443.747-449.386 443.747-1.213 0-2.424-0.005-3.635-0.014l0.185 0.001c-1.533 0.019-3.343 0.030-5.156 0.030-246.219 0-446.193-198-449.384-443.462l-0.003-0.301c3.514-245.513 203.362-443.188 449.379-443.188 1.615 0 3.229 0.009 4.84 0.026l-0.246-0.002c105.244 0 202.524 35.84 279.893 95.004l196.836-216.178c9.92-9.621 23.468-15.552 38.4-15.552s28.48 5.931 38.414 15.566l-0.014-0.014c9.797 9.522 15.876 22.824 15.876 37.547s-6.079 28.025-15.863 37.535l-0.012 0.012zM108.658 516.267c2.236 186.803 154.189 337.375 341.31 337.375 1.408 0 2.814-0.009 4.219-0.026l-0.213 0.002c1.024 0.011 2.233 0.017 3.443 0.017 186.919 0 338.746-150.247 341.301-336.559l0.003-0.24c-2.557-186.553-154.384-336.8-341.303-336.8-1.211 0-2.42 0.006-3.628 0.019l0.185-0.002c-1.365-0.020-2.976-0.031-4.589-0.031-186.724 0-338.429 149.933-341.292 335.975l-0.003 0.269zM635.449 569.742h-362.951c-0.173 0.002-0.377 0.003-0.581 0.003-29.449 0-53.397-23.554-54.032-52.851l-0.001-0.059c0-29.582 24.462-53.476 54.613-53.476h362.951c30.151 0 54.613 23.893 54.613 53.476-0.636 29.356-24.584 52.91-54.033 52.91-0.204 0-0.408-0.001-0.612-0.003h0.031z" />
<glyph unicode="&#xe905;" glyph-name="search-plus" d="M1006.933 27.022l-215.040 216.178c59.020 74.654 94.674 170.146 94.674 273.966 0 245.067-198.666 443.733-443.733 443.733s-443.733-198.666-443.733-443.733c0-245.067 198.666-443.733 443.733-443.733 103.819 0 199.311 35.654 274.899 95.386l-0.934-0.712 214.471-216.178c9.614-9.828 23.011-15.921 37.831-15.921s28.217 6.093 37.822 15.912l0.009 0.010c9.656 9.588 15.633 22.869 15.633 37.547s-5.977 27.959-15.629 37.544l-0.003 0.003zM106.382 516.267c0 186.314 151.037 337.351 337.351 337.351s337.351-151.037 337.351-337.351v0c0-186.314-151.037-337.351-337.351-337.351s-337.351 151.037-337.351 337.351v0zM620.658 569.742h-124.018v124.587c-2.885 27.068-25.597 47.967-53.191 47.967s-50.306-20.9-53.171-47.733l-0.020-0.235v-124.587h-124.018c-27.068-2.885-47.967-25.597-47.967-53.191s20.9-50.306 47.733-53.171l0.235-0.020h124.018v-124.018c2.885-27.068 25.597-47.967 53.191-47.967s50.306 20.9 53.171 47.733l0.020 0.235v124.018h124.018c27.068 2.885 47.967 25.597 47.967 53.191s-20.9 50.306-47.733 53.171l-0.235 0.020z" />
<glyph unicode="&#xe906;" glyph-name="undo" horiz-adv-x="1314" d="M798.080 769.92h-139.52v128c-0.247 11.605-3.545 22.39-9.121 31.648l0.161-0.288c-5.84 9.842-14.105 17.697-23.99 22.882l-0.33 0.158c-9.272 4.999-20.293 7.937-32 7.937s-22.728-2.938-32.365-8.116l0.365 0.179-529.28-302.72c-9.809-5.371-17.669-13.231-22.891-22.744l-0.149-0.296c-5.597-8.701-8.933-19.318-8.96-30.713v-0.007c0.247-11.605 3.545-22.39 9.121-31.648l-0.161 0.288c5.567-9.47 13.381-17.079 22.734-22.245l0.306-0.155 526.72-302.72c9.272-4.999 20.293-7.937 32-7.937s22.728 2.938 32.365 8.116l-0.365-0.179c10.215 5.343 18.48 13.198 24.168 22.763l0.152 0.277c5.414 8.97 8.713 19.755 8.959 31.291l0.001 0.069v100.48h131.84c128 0 328.32-106.88 328.32-394.24 0.229-14.443 5.513-27.609 14.154-37.85l-0.074 0.090c8.532-11.091 20.411-19.232 34.112-22.937l0.448-0.103c6.32-1.982 13.587-3.124 21.12-3.124s14.8 1.142 21.637 3.262l-0.517-0.138c13.577 5.301 24.601 14.672 31.84 26.596l0.16 0.284c45.229 72.966 72.82 161.056 74.87 255.438l0.010 0.562c0.069 3.155 0.108 6.873 0.108 10.601 0 91.662-23.76 177.775-65.458 252.514l1.35-2.635c-46.021 81.484-109.846 147.973-186.517 195.793l-2.283 1.327c-74.599 49.25-164.304 81.743-260.914 90.092l-2.126 0.148z" />
<glyph unicode="&#xe907;" glyph-name="redo" horiz-adv-x="1314" d="M518.4 769.92h139.52v128c0.247 11.605 3.545 22.39 9.121 31.648l-0.161-0.288c5.84 9.842 14.105 17.697 23.99 22.882l0.33 0.158c9.272 4.999 20.293 7.937 32 7.937s22.728-2.938 32.365-8.116l-0.365 0.179 526.72-302.72c18.802-10.991 31.38-30.84 31.998-53.674l0.002-0.086c-0.247-11.605-3.545-22.39-9.121-31.648l0.161 0.288c-5.567-9.47-13.381-17.079-22.734-22.245l-0.306-0.155-526.72-302.72c-9.272-4.999-20.293-7.937-32-7.937s-22.728 2.938-32.365 8.116l0.365-0.179c-10.215 5.343-18.48 13.198-24.168 22.763l-0.152 0.277c-5.414 8.97-8.713 19.755-8.959 31.291l-0.001 0.069v100.48h-131.84c-128 0-328.32-106.88-328.32-394.24-0.229-14.443-5.513-27.609-14.154-37.85l0.074 0.090c-8.532-11.091-20.411-19.232-34.112-22.937l-0.448-0.103c-6.32-1.982-13.587-3.124-21.12-3.124s-14.8 1.142-21.637 3.262l0.517-0.138c-13.577 5.301-24.601 14.672-31.84 26.596l-0.16 0.284c-45.762 73.862-73.433 163.154-74.875 258.804l-0.005 0.396c-0.069 3.155-0.108 6.873-0.108 10.601 0 91.662 23.76 177.775 65.458 252.514l-1.35-2.635c46.036 82.052 110.107 148.991 187.159 197.073l2.281 1.327c75.426 48.013 165.964 79.056 263.21 85.665l1.75 0.095z" />
<glyph unicode="&#xe908;" glyph-name="arrow-down-sign-to-navigate" d="M511.999 156.146c-18.352 0-36.702 7.007-50.694 20.992l-440.297 440.301c-28.009 28.009-28.009 73.42 0 101.417 27.997 27.997 73.399 27.997 101.41 0l389.58-389.603 389.583 389.589c28.009 27.997 73.406 27.997 101.401 0 28.022-27.997 28.022-73.408 0-101.417l-440.29-440.301c-13.999-13.987-32.349-20.979-50.694-20.979z" />
<glyph unicode="&#xe909;" glyph-name="navigate-up-arrow" d="M562.694 718.856l440.291-440.311c28.022-28.009 28.022-73.406 0-101.401-27.997-27.997-73.406-27.997-101.401 0l-389.583 389.595-389.581-389.595c-28.011-27.997-73.415-27.997-101.411 0-28.009 27.997-28.009 73.406 0 101.415l440.298 440.311c14.005 13.992 32.342 20.983 50.694 20.983 18.345 0 36.695-7.005 50.694-20.997z" />
<glyph unicode="&#xe90a;" glyph-name="line-angle-left" horiz-adv-x="558" d="M541.333 33.333c22.083-22.75 21.583-59-1.083-81.083-22.75-22.083-59-21.583-81.083 1.167l-442.75 456.5 41.083 40-41.25-40c-22.083 22.833-21.583 59.167 1.25 81.333 0.667 0.667 1.333 1.25 2 1.833l439.667 449.5c22.083 22.75 58.333 23.25 81.083 1.167s23.167-58.417 1.083-81.083l-403.833-412.917 403.833-416.417z" />
<glyph unicode="&#xe90b;" glyph-name="line-angle-right" horiz-adv-x="558" d="M16.25 33.333c-22.083-22.667-21.583-59 1.167-81.083 22.667-22.083 59-21.583 81.083 1.167l442.667 456.583-41.083 39.917 41.25-40c22.083 22.833 21.583 59.25-1.25 81.333-0.667 0.667-1.333 1.25-2 1.833l-439.667 449.5c-22.083 22.75-58.333 23.25-81.083 1.167-22.667-22.083-23.167-58.333-1.083-81.083l403.833-412.917-403.833-416.417z" />
<glyph unicode="&#xe90c;" glyph-name="side-menu-craft" d="M873.813 854.613h-9.813v75.52c0 16.495-13.372 29.867-29.867 29.867h-100.267c-16.495 0-29.867-13.372-29.867-29.867v0-75.52h-61.013v75.52c0 16.495-13.372 29.867-29.867 29.867v0h-100.267c-16.495 0-29.867-13.372-29.867-29.867v0-75.52h-212.053v75.52c0 16.495-13.372 29.867-29.867 29.867s-29.867-13.372-29.867-29.867v0-75.52h-61.013c0 0 0 0-0.001 0-82.946 0-150.187-67.241-150.187-150.187 0-0.15 0-0.3 0.001-0.45v0.023-281.6c0-17.067 13.227-29.867 29.867-29.867h81.067v-70.4c0-16.64 13.653-29.867 29.867-29.867h70.4v-12.8c0-16.495 13.372-29.867 29.867-29.867s29.867 13.372 29.867 29.867v0 12.8h70.4c16.495 0 29.867 13.372 29.867 29.867v0 70.4h81.067c16.495 0 29.867 13.372 29.867 29.867v0 14.507c0 44.772 36.295 81.067 81.067 81.067s81.067-36.295 81.067-81.067v0-200.533h-614.4c-0.001 0-0.002 0-0.003 0-16.495 0-29.867-13.372-29.867-29.867 0-0.15 0.001-0.3 0.003-0.449v0.023-129.707h1024v628.053c0 82.946-67.241 150.187-150.187 150.187v0zM889.173 292.693h-110.080c-16.495 0-29.867 13.372-29.867 29.867s13.372 29.867 29.867 29.867h110.080c16.495 0 29.867-13.372 29.867-29.867s-13.372-29.867-29.867-29.867v0zM833.707 543.573c-49.629 0.121-89.814 40.381-89.814 90.027 0 49.72 40.306 90.027 90.027 90.027 0.075 0 0.15 0 0.225 0h-0.012c49.72 0 90.027-40.306 90.027-90.027s-40.306-90.027-90.027-90.027v0zM0 16.64v-50.773c0-16.64 13.227-29.867 29.867-29.867h964.267c16.495 0 29.867 13.372 29.867 29.867v0 51.2h-1024z" />
<glyph unicode="&#xe90d;" glyph-name="side-menu-fabric" horiz-adv-x="1026" d="M714.15 746.738l19.232-7.693 18.805 40.174-26.497 45.73v27.78l-117.102-115.392 41.456-16.668 64.107 26.070zM240.614 309.957l-20.514 44.020-113.683-111.973h15.813l59.833-30.344 37.609 14.958-8.975 18.805 29.917 64.107zM448.321 750.584l61.97-25.643 206.851 203.86h-86.758l-24.788 12.821-231.639-229.503h13.676l60.688 38.464zM246.598 568.948v17.095l-229.503-226.938 11.967-23.078-2.137-88.040 207.279 204.715-27.352 58.551 39.746 57.696zM288.481 712.12l226.938 225.229-10.257-4.274-64.107 26.070-59.833-23.933-351.306-347.886 1.282-2.992-29.917-64.107 29.062-63.252 215.826 213.689v41.883h41.883zM1.282 648.868l1.71-3.846 314.551 311.559-5.556 2.137-64.107-25.643-67.526 26.925-49.576-31.199h-99.579v-103.426l-31.199-44.875 31.626-67.098-29.917-64.534zM999.212 549.716v105.135h-95.306l-59.833 29.917-65.389-26.497-64.107 26.070-64.534-25.643-64.107 25.643-64.534-25.643-67.526 26.925-49.576-30.771h-99.579v-103.853l-31.199-44.875 31.626-67.098-29.917-64.107 29.917-64.534-29.917-64.534 29.917-64.107-30.344-64.962 27.78-55.132-2.564-94.023h95.733l59.833-30.344 65.816 26.497 64.107-25.643 64.107 25.643 64.534-25.643 64.534 25.643 67.098-27.352 50.003 31.199h99.579v93.169l29.917 55.559-30.344 64.962 29.917 64.534-29.917 64.107 29.917 64.534-29.917 64.107 30.771 66.244-26.497 45.73zM439.346 479.199c-16.516 0.23-29.873 13.438-30.343 29.873l-0.001 0.044c-0.855 16.24 14.104 29.917 29.917 29.917 17.095 0 29.489-13.676 29.917-29.917 0.855-16.24-14.104-29.917-29.917-29.917zM439.346 74.043c-16.516 0.23-29.873 13.438-30.343 29.873l-0.001 0.044c-0.855 16.668 14.104 30.344 29.917 30.344 17.095 0 29.489-13.676 29.917-29.917 0.855-16.24-14.104-29.917-29.917-29.917zM439.346 278.758c-16.516 0.23-29.873 13.438-30.343 29.873l-0.001 0.044c-0.855 16.24 14.104 29.917 29.917 29.917 17.095 0 29.489-13.676 29.917-29.917 0.855-16.24-14.104-29.917-29.917-29.917zM509.863 178.324c-16.333 0.462-29.455 13.583-29.916 29.873l-0.001 0.043c-0.855 16.668 14.104 29.917 29.917 29.917 17.095 0 29.489-13.249 29.917-29.917 0.855-15.813-14.104-29.917-29.917-29.917zM509.863 379.192c-16.333 0.462-29.455 13.583-29.916 29.873l-0.001 0.043c-0.855 16.24 14.104 29.917 29.917 29.917 17.095 0 29.489-13.676 29.917-29.917 0.855-16.24-14.104-29.917-29.917-29.917zM578.244 74.043c-16.333 0.462-29.455 13.583-29.916 29.873l-0.001 0.043c-0.427 16.668 14.531 30.344 29.917 30.344 17.095 0 29.917-13.676 30.344-29.917 0.855-16.24-14.104-29.917-29.917-29.917zM578.244 278.758c-16.333 0.462-29.455 13.583-29.916 29.873l-0.001 0.043c-0.427 16.24 14.531 29.917 29.917 29.917 17.095 0 29.917-13.676 30.344-29.917 0.855-16.24-14.104-29.917-29.917-29.917zM578.244 479.199c-16.333 0.462-29.455 13.583-29.916 29.873l-0.001 0.043c-0.427 16.24 14.531 29.917 29.917 29.917 17.095 0 29.917-13.676 30.344-29.917 0.855-16.24-14.104-29.917-29.917-29.917zM649.616 178.324c-16.333 0.462-29.455 13.583-29.916 29.873l-0.001 0.043c-0.855 16.668 14.104 29.917 29.917 29.917 17.095 0 29.062-13.249 29.917-29.917 0.855-15.813-14.531-29.917-29.917-29.917zM649.616 379.192c-16.333 0.462-29.455 13.583-29.916 29.873l-0.001 0.043c-0.855 16.24 14.104 29.917 29.917 29.917 17.095 0 29.062-13.676 29.917-29.917s-14.531-29.917-29.917-29.917zM717.997 74.043c-16.333 0.462-29.455 13.583-29.916 29.873l-0.001 0.043c-0.427 16.668 14.531 30.344 29.917 30.344 17.095 0 29.917-13.676 30.344-29.917 0.855-16.24-14.104-29.917-29.917-29.917zM717.997 278.758c-16.333 0.462-29.455 13.583-29.916 29.873l-0.001 0.043c-0.427 16.24 14.531 29.917 29.917 29.917 17.095 0 29.917-13.676 30.344-29.917 0.855-16.24-14.104-29.917-29.917-29.917zM717.997 479.199c-16.333 0.462-29.455 13.583-29.916 29.873l-0.001 0.043c-0.427 16.24 14.531 29.917 29.917 29.917 17.095 0 29.917-13.676 30.344-29.917 0.855-16.24-14.104-29.917-29.917-29.917zM788.942 178.324c-16.333 0.462-29.455 13.583-29.916 29.873l-0.001 0.043c-0.855 16.668 14.531 29.917 29.917 29.917 17.095 0 29.917-13.249 29.917-29.917 1.282-15.813-14.104-29.917-29.917-29.917zM788.942 379.192c-16.333 0.462-29.455 13.583-29.916 29.873l-0.001 0.043c-0.855 16.24 14.531 29.917 29.917 29.917 17.095 0 29.917-13.676 29.917-29.917 1.282-16.24-14.104-29.917-29.917-29.917zM858.177 74.043c-16.333 0.462-29.455 13.583-29.916 29.873l-0.001 0.043c-0.855 16.668 14.104 30.344 29.917 30.344 16.668 0 29.062-13.676 29.917-29.917s-14.531-29.917-29.917-29.917zM858.177 278.758c-16.333 0.462-29.455 13.583-29.916 29.873l-0.001 0.043c-0.855 16.24 14.104 29.917 29.917 29.917 16.668 0 29.062-13.676 29.917-29.917s-14.531-29.917-29.917-29.917zM858.177 479.199c-16.333 0.462-29.455 13.583-29.916 29.873l-0.001 0.043c-0.855 16.24 14.104 29.917 29.917 29.917 16.668 0 29.062-13.676 29.917-29.917s-14.531-29.917-29.917-29.917z" />
<glyph unicode="&#xe90e;" glyph-name="view" d="M512.001 587.635c-77.034 0-139.636-62.603-139.636-139.636s62.603-139.636 139.636-139.636 139.636 62.603 139.636 139.636-62.605 139.636-139.636 139.636zM512.001 797.090c-232.728 0-431.477-144.755-512.001-349.091 80.524-204.334 279.273-349.091 512.001-349.091 232.959 0 431.477 144.757 512.001 349.091-80.524 204.336-279.042 349.091-512.001 349.091zM512.001 215.273c-128.466 0-232.728 104.263-232.728 232.728s104.263 232.726 232.728 232.726 232.728-104.263 232.728-232.728-104.263-232.726-232.728-232.726z" />
<glyph unicode="&#xe90f;" glyph-name="close" horiz-adv-x="1026" d="M1003.012 70.324l-378.703 378.719 376.649 376.649c30.716 30.732 30.716 80.551 0 111.266-30.732 30.716-80.534 30.716-111.266 0l-376.649-376.649-376.632 376.649c-30.732 30.716-80.534 30.716-111.266 0-30.732-30.732-30.732-80.551 0-111.266l376.632-376.649-378.736-378.719c-30.732-30.732-30.732-80.534 0-111.266 15.366-15.366 35.495-23.041 55.642-23.041s40.275 7.675 55.642 23.041l378.719 378.719 378.703-378.719c15.366-15.366 35.495-23.041 55.642-23.041s40.275 7.675 55.642 23.041c30.699 30.716 30.699 80.534-0.017 111.266z" />
<glyph unicode="&#xe910;" glyph-name="export" horiz-adv-x="760" d="M266.779 726.636l63.596 64.674v-508.227c0-27.384 22.199-49.583 49.583-49.583s49.583 22.199 49.583 49.583v0 507.688l64.135-64.135c8.97-8.955 21.354-14.494 35.032-14.494s26.062 5.538 35.032 14.494l-0.001-0.001c8.955 8.97 14.494 21.354 14.494 35.032s-5.538 26.062-14.494 35.032l-148.748 148.748c-1.153 1.090-2.382 2.148-3.659 3.148l-0.114 0.086-1.617 1.617-2.156 1.617-4.312 2.156-1.617 1.078-2.695 1.078-2.156 0.539-2.156 1.078-2.156 0.539-2.695 0.539h-2.695l-1.617 1.078h-10.24l-1.617-0.539h-2.695l-2.695-1.078-4.312-1.078-8.623-4.312-2.156-1.617-2.156-1.078-1.617-1.617c-1.39-1.081-2.62-2.14-3.795-3.255l0.022 0.021-149.288-148.749c-9.838-9.089-15.977-22.056-15.977-36.457 0-27.384 22.199-49.583 49.583-49.583 14.401 0 27.368 6.14 36.427 15.944l0.031 0.033zM710.333 629.625h-132.042c-27.384 0-49.583-22.199-49.583-49.583s22.199-49.583 49.583-49.583h82.459v-495.832h-561.583v495.832h82.459c27.384 0 49.583 22.199 49.583 49.583s-22.199 49.583-49.583 49.583h-132.042c-26.947 0-49.583-22.097-49.583-49.583v-594.459c0-26.947 22.097-49.583 49.583-49.583h660.749c26.947 0 49.583 22.097 49.583 49.583v594.459c0 26.947-22.097 49.583-49.583 49.583z" />
<glyph unicode="&#xe911;" glyph-name="side-menu-reference" horiz-adv-x="1025" d="M963.058 718.377l24.892 24.892c22.684 22.679 36.715 54.013 36.715 88.624s-14.031 65.945-36.715 88.623v0c-22.543 21.923-53.358 35.441-87.331 35.441-34.189 0-65.18-13.691-87.789-35.889l0.019 0.019-24.892-25.321zM526.592 419.675l325.311 325.311 68.667-68.667-324.882-325.311zM418.012 528.255l325.311 324.882 68.667-68.667-324.882-325.311zM375.953 485.338l-55.792-187.547c-0.882-2.988-1.39-6.421-1.39-9.973 0-20.147 16.332-36.479 36.479-36.479 3.552 0 6.985 0.508 10.231 1.454l-0.258-0.064 187.547 55.792zM171.668 359.162c-16.592 0-30.042 13.45-30.042 30.042s13.45 30.042 30.042 30.042h78.967v155.36h-78.967c-16.592 0-30.042 13.45-30.042 30.042s13.45 30.042 30.042 30.042h78.967v156.647h-78.967c-16.592 0-30.042 13.45-30.042 30.042s13.45 30.042 30.042 30.042v0h78.967v65.663c0 23.702-19.215 42.917-42.917 42.917v0h-164.801c-23.702 0-42.917-19.215-42.917-42.917v0-624.872c0-23.702 19.215-42.917 42.917-42.917v0h164.801c23.702 0 42.917 19.215 42.917 42.917v0 66.951zM981.512 186.206h-938.595c-23.702 0-42.917-19.215-42.917-42.917v0-164.372c0-23.702 19.215-42.917 42.917-42.917v0h116.305v68.238c0 16.592 13.45 30.042 30.042 30.042s30.042-13.45 30.042-30.042v0-68.238h155.36v68.238c0 16.592 13.45 30.042 30.042 30.042s30.042-13.45 30.042-30.042v0-68.238h155.36v68.238c0 16.592 13.45 30.042 30.042 30.042s30.042-13.45 30.042-30.042v0-68.238h155.36v68.238c0 16.592 13.45 30.042 30.042 30.042s30.042-13.45 30.042-30.042v0-68.238h115.876c23.702 0 42.917 19.215 42.917 42.917v0 164.372c0 23.702-19.215 42.917-42.917 42.917v0z" />
<glyph unicode="&#xe912;" glyph-name="size-menu-size" horiz-adv-x="1082" d="M1047.437 960h-264.563c-18.918 0-34.254-15.336-34.254-34.254v0c-0.256-42.122-34.461-76.169-76.618-76.169 0 0-0.001 0-0.001 0v0c-42.316 0-76.62 34.304-76.62 76.62v0c-0.253 18.724-15.49 33.806-34.251 33.806-0.159 0-0.319-0.001-0.478-0.003h-268.145c-0.135 0.002-0.294 0.003-0.454 0.003-18.918 0-34.254-15.336-34.254-34.254 0-0.16 0.001-0.319 0.003-0.478v0.024-210.028c0-13.972 9.014-27.042 22.085-32l46.423-18.028c38.615-15.659 65.354-52.869 65.354-96.324 0-0.203-0.001-0.406-0.002-0.609v0.031-373.183c0-18.93 15.324-34.704 34.704-34.704h486.761c19.38 0 34.704 15.775 34.704 34.704v373.183c0 42.817 25.69 81.127 65.803 96.451l46.423 18.028c13.070 5.408 21.634 18.028 21.634 32.451v210.028c0.002 0.134 0.003 0.292 0.003 0.451 0 18.918-15.336 34.254-34.254 34.254-0.001 0-0.002 0-0.003 0v0zM1011.38 115.831c-6.269 6.325-14.959 10.241-24.563 10.241-19.097 0-34.579-15.481-34.579-34.579 0-9.493 3.825-18.092 10.018-24.341l-0.003 0.003c2.704-2.704 66.254-1.803-832.901-1.803 0 836.958-0.901 777.915 1.803 775.211 6.246-6.19 14.845-10.016 24.338-10.016 19.097 0 34.579 15.481 34.579 34.579 0 9.605-3.916 18.295-10.238 24.561l-0.003 0.003-60.394 59.944c-6.231 6.406-14.933 10.38-24.563 10.38s-18.332-3.974-24.556-10.372l-0.008-0.008-60.394-59.944c-6.19-6.246-10.016-14.845-10.016-24.338 0-19.097 15.481-34.579 34.579-34.579 9.605 0 18.295 3.916 24.561 10.238l0.003 0.003c2.254 2.704 1.352 64 1.352-809.465 0-19.38 15.324-34.704 34.704-34.704h868.958c-16.676-16.676-13.521-37.859-1.803-50.479 13.521-13.521 35.606-13.521 49.127 0l60.394 60.845c13.521 13.521 13.521 35.155 0 48.676l-60.394 60.394z" />
<glyph unicode="&#xe913;" glyph-name="delete" horiz-adv-x="1027" d="M972.8 806.4h-921.6c-28.277 0-51.2-22.923-51.2-51.2s22.923-51.2 51.2-51.2h102.4v-617.412c2.016-83.399 69.947-150.275 153.57-150.588h409.63c0.729-0.012 1.589-0.019 2.451-0.019 83.9 0 152.149 67.005 154.157 150.421l0.004 0.187v617.412h102.4c28.277 0 51.2 22.923 51.2 51.2s-22.923 51.2-51.2 51.2v0zM460.8 243.2c0-0.037 0-0.081 0-0.126 0-14.091-5.76-26.836-15.054-36.010l-0.005-0.005c-9.276-9.221-22.029-14.953-36.121-15.059h-0.020c-28.277 0-51.2 22.923-51.2 51.2v0 256c0 28.277 22.923 51.2 51.2 51.2v0c14.112-0.106 26.865-5.838 36.144-15.061l-0.003 0.003c9.299-9.179 15.059-21.925 15.059-36.016 0-0.044 0-0.088 0-0.132v0.007zM665.6 243.2c0-28.277-22.923-51.2-51.2-51.2v0c-14.112 0.106-26.865 5.838-36.144 15.061l0.003-0.003c-9.299 9.179-15.059 21.925-15.059 36.016 0 0.044 0 0.088 0 0.132v-0.007 256c0 0.037 0 0.081 0 0.126 0 14.091 5.76 26.836 15.054 36.010l0.005 0.005c9.276 9.221 22.029 14.953 36.121 15.059h0.020c28.277 0 51.2-22.923 51.2-51.2v0zM409.6 857.6h204.8c28.277 0 51.2 22.923 51.2 51.2s-22.923 51.2-51.2 51.2h-204.8c-28.277 0-51.2-22.923-51.2-51.2s22.923-51.2 51.2-51.2v0z" />
<glyph unicode="&#xe914;" glyph-name="copy" horiz-adv-x="963" d="M646.167 106.867h-561.335c-0.254-0.003-0.553-0.004-0.853-0.004-23.182 0-44.16 9.432-59.307 24.668l-0.004 0.004c-15.236 14.967-24.678 35.789-24.678 58.815 0 0.474 0.004 0.948 0.012 1.42l-0.001-0.071v683.469c-0.007 0.401-0.011 0.875-0.011 1.349 0 23.027 9.442 43.848 24.666 58.803l0.012 0.012c15.151 15.24 36.13 24.672 59.311 24.672 0.3 0 0.599-0.002 0.899-0.005h561.29c23.443-0.038 44.682-9.447 60.177-24.679l-0.012 0.012c15.245-15.334 24.668-36.469 24.668-59.806 0-0.126 0-0.252-0.001-0.378v0.019-684.071c0-0.106 0.001-0.232 0.001-0.358 0-23.337-9.423-44.473-24.672-59.81l0.004 0.004c-15.446-14.892-36.493-24.067-59.683-24.067-0.169 0-0.339 0-0.508 0.001h0.026zM875.394 789.133h-74.002v-669.029c0-46.519-37.711-84.23-84.23-84.23h-481.316c-2.275-4.324-3.61-9.448-3.61-14.885 0-0.055 0-0.11 0-0.165v0.008c0.174-23.421 9.55-44.618 24.687-60.185l-0.020 0.020c15.483-15.221 36.721-24.629 60.157-24.667h561.342c23.443 0.038 44.682 9.447 60.177 24.679l-0.012-0.012c14.887 15.18 24.074 35.996 24.074 58.958 0 0.424-0.003 0.848-0.009 1.271l0.001-0.064v684.071c0.006 0.359 0.009 0.782 0.009 1.207 0 22.962-9.188 43.777-24.088 58.971l0.013-0.014c-15.454 14.932-36.528 24.134-59.752 24.134-1.203 0-2.4-0.025-3.592-0.074l0.171 0.006z" />
<glyph unicode="&#xe915;" glyph-name="reset" horiz-adv-x="919" d="M816.188 241.393c-64.809-119.081-189.010-198.545-331.772-198.545-23.248 0-46.003 2.107-68.086 6.141l2.305-0.349c-159.577 28.795-283.016 154.473-308.124 312.882l-0.281 2.148c-2.545 16.472-3.999 35.473-3.999 54.814 0 208.584 169.091 377.675 377.675 377.675 102.591 0 195.627-40.905 263.691-107.294l-0.078 0.076h-155.407c-14.881-0.219-28.277-6.4-37.94-16.255l-0.009-0.009c-9.67-9.421-15.668-22.569-15.668-37.118 0-0.292 0.002-0.583 0.007-0.874l-0.001 0.044c-0.001-0.098-0.001-0.214-0.001-0.33 0-14.705 5.988-28.012 15.659-37.615l0.003-0.003c9.697-9.677 23.083-15.661 37.867-15.661 0.029 0 0.057 0 0.086 0h272.26c28.363 1.314 50.899 24.481 51.2 52.978v272.293c-0.429 29.611-24.534 53.45-54.206 53.45-14.782 0-28.182-5.916-37.962-15.51l0.009 0.008c-9.441-9.873-15.35-23.192-15.66-37.888l-0.001-0.060v-125.892c-72.011 64.908-164.366 108.527-266.421 120.262l-2.228 0.208c-16.653 2.040-35.932 3.205-55.482 3.205-191.137 0-356.282-111.281-434.182-272.59l-1.253-2.878c-30.459-61.419-48.28-133.747-48.28-210.238 0-240.659 176.416-440.113 406.98-476.096l2.712-0.348c22.72-3.753 48.903-5.898 75.587-5.898 78.19 0 152.079 18.415 217.566 51.145l-2.819-1.276c90.889 45.275 163.618 115.485 210.769 201.684l1.259 2.513c4.079 7.383 6.479 16.186 6.479 25.549 0 5.496-0.827 10.799-2.364 15.791l0.101-0.38c-4.138 13.904-13.437 25.165-25.622 31.786l-0.279 0.139c-7.411 4.051-16.235 6.433-25.615 6.433-5.47 0-10.751-0.81-15.729-2.317l0.384 0.1c-14.387-3.847-26.11-13.211-32.991-25.629l-0.138-0.272z" />
<glyph unicode="&#xe916;" glyph-name="anchor" horiz-adv-x="742" d="M705.208 245.736l-659.321 701.585c-4.861 5.191-11.757 8.426-19.409 8.426-3.443 0-6.733-0.655-9.753-1.847l0.18 0.063c-9.902-3.761-16.827-13.137-16.906-24.141v-966.048c0-0.042 0-0.091 0-0.141 0-11.983 7.758-22.155 18.526-25.766l0.192-0.056c2.647-1.024 5.71-1.617 8.911-1.617 8.499 0 16.021 4.181 20.622 10.598l0.052 0.076 236.075 330.264 398.491-77.887c2.166-0.706 4.658-1.112 7.245-1.112s5.079 0.407 7.416 1.16l-0.171-0.048c5.805 2.618 10.415 7.033 13.212 12.525l0.071 0.154c2.089 3.856 3.318 8.442 3.318 13.315 0 8.053-3.354 15.322-8.742 20.487l-0.010 0.010zM696.755 731.774h-274.717c-25.009 0-45.283 20.274-45.283 45.283s20.274 45.283 45.283 45.283v0h274.717c25.009 0 45.283-20.274 45.283-45.283s-20.274-45.283-45.283-45.283v0zM559.698 594.717c-24.873 0.336-44.947 20.41-45.283 45.251v274.749c0 25.009 20.274 45.283 45.283 45.283s45.283-20.274 45.283-45.283v0-274.717c0-25.009-20.274-45.283-45.283-45.283v0z" />
<glyph unicode="&#xe917;" glyph-name="move" horiz-adv-x="1025" d="M1009.535 483.861l-153.69 153.69c-9.168 9.199-21.85 14.891-35.861 14.891s-26.693-5.692-35.86-14.889l-0.001-0.001c-9.297-8.998-15.068-21.589-15.068-35.529 0-0.011 0-0.022 0-0.032v0.002c-0.001-0.144-0.002-0.313-0.002-0.483 0-13.877 5.518-26.466 14.479-35.692l66.286-66.286h-286.286v285.683l69.311-66.298c9.389-8.955 22.132-14.465 36.162-14.465v0c28.033 0.34 50.627 23.145 50.627 51.227 0 0.001 0 0.003 0 0.004v0c0.002 0.184 0.004 0.402 0.004 0.62 0 13.644-5.529 25.997-14.469 34.94v0l-156.704 153.69c-9.282 9.226-22.042 14.962-36.142 15.068h-0.020c-0.037 0-0.081 0-0.126 0-14.099 0-26.852-5.763-36.031-15.062l-153.695-153.695c-8.94-8.943-14.469-21.296-14.469-34.94 0-0.218 0.001-0.435 0.004-0.653v0.033c0-0.001 0-0.002 0-0.004 0-28.082 22.594-50.886 50.595-51.226h0.032c14.030 0 26.773 5.51 36.183 14.485l-0.021-0.020 66.298 66.298v-286.286h-286.286l66.298 66.298c8.855 9.448 14.335 22.153 14.465 36.137v0.026c0 0.009 0 0.020 0 0.031 0 13.94-5.771 26.531-15.054 35.516l-0.013 0.013c-9.168 9.199-21.85 14.891-35.861 14.891s-26.693-5.692-35.86-14.889l-0.001-0.001-153.69-153.088c-9.305-9.185-15.068-21.938-15.068-36.037 0-0.044 0-0.088 0-0.132v0.007c0.106-14.12 5.841-26.881 15.070-36.165l153.687-153.687c9.389-8.955 22.132-14.465 36.162-14.465v0c26.832 1.792 47.918 23.995 47.918 51.123 0 12.448-4.44 23.86-11.822 32.737l0.067-0.083-66.298 66.298h286.286v-283.273l-66.298 66.298c-9.168 9.199-21.85 14.891-35.861 14.891s-26.693-5.692-35.86-14.889l-0.001-0.001c-9.297-8.998-15.068-21.589-15.068-35.529 0-0.011 0-0.022 0-0.032v0.002c-0.001-0.144-0.002-0.313-0.002-0.483 0-13.877 5.518-26.466 14.479-35.692l153.678-153.678c8.71-9.284 21.057-15.068 34.754-15.068 0.071 0 0.143 0 0.214 0h-0.011c0.222-0.004 0.485-0.006 0.748-0.006 13.496 0 25.759 5.281 34.834 13.889l-0.022-0.021 153.69 153.69c8.855 9.448 14.335 22.153 14.465 36.137v0.026c-0.699 13.824-6.305 26.219-15.096 35.59l0.028-0.030c-9.203 8.992-21.682 14.665-35.483 15.066l-0.077 0.002c-0.288 0.006-0.628 0.009-0.968 0.009-13.725 0-26.16-5.528-35.198-14.478l-66.294-66.294v286.889h288.094l-66.298-69.311c-8.883-9.2-14.356-21.743-14.356-35.565 0-28.044 22.533-50.824 50.481-51.225h0.038c14.030 0 26.773 5.51 36.183 14.485l-0.021-0.020 153.69 153.69c9.226 9.282 14.962 22.042 15.068 36.142v0.020c0.059 0.911 0.092 1.976 0.092 3.049 0 14.144-5.8 26.934-15.152 36.12l-0.007 0.007z" />
<glyph unicode="&#xe918;" glyph-name="boxpleat" horiz-adv-x="1134" d="M1125.822 948.439c-6.267 6.988-15.275 11.408-25.317 11.56h-386.417c-16.922-0.107-30.846-12.8-32.887-29.183l-0.017-0.163-23.566-188.526h67.14l17.341 148.954h319.25l-88.927-706.529h-185.858l-8.448-66.696h224.987c0.057 0 0.125-0.001 0.193-0.001 16.919 0 30.855 12.77 32.697 29.197l0.014 0.149 97.82 775.003c0.134 1.147 0.211 2.475 0.211 3.821 0 8.568-3.107 16.41-8.255 22.462l0.041-0.049zM881.716 764.36c-5.981 6.83-14.719 11.119-24.458 11.119-0.155 0-0.311-0.001-0.465-0.003h-578.006c-0.090 0.001-0.196 0.001-0.302 0.001-18.172 0-32.903-14.731-32.903-32.903 0-1.569 0.11-3.112 0.322-4.622l-0.020 0.174 96.042-772.78c2.266-16.601 16.316-29.268 33.34-29.346h386.398c0.057 0 0.125-0.001 0.193-0.001 16.919 0 30.855 12.77 32.697 29.197l0.014 0.149 95.597 772.78c0.126 1.098 0.199 2.37 0.199 3.659 0 8.692-3.282 16.618-8.674 22.605l0.027-0.030zM730.984 1.806h-327.698l-88.483 706.974h504.219zM251.22 762.136l137.838 184.525 53.356-40.017-137.838-184.525zM688.743 906.199l53.356 40.017 137.838-184.525-53.356-40.017zM346.817 186.776h-187.192l-88.483 704.306h319.25l19.119-151.177h65.806l-22.232 190.749c-2.266 16.601-16.316 29.268-33.34 29.346h-386.398c-9.929-0.168-18.792-4.592-24.866-11.522l-0.033-0.039c-5.15-5.781-8.298-13.445-8.298-21.844 0-1.548 0.107-3.071 0.314-4.562l-0.020 0.172 96.486-772.78c2.266-16.601 16.316-29.268 33.34-29.346h222.327z" />
<glyph unicode="&#xe919;" glyph-name="add-node" horiz-adv-x="951" d="M935.497 268.8l-467.383 202.24c44.183 50.878 73.997 115.323 82.49 186.318l0.162 1.659h28.16c14.138 0 25.6 11.462 25.6 25.6v103.497c0 14.138-11.462 25.6-25.6 25.6v0h-102.766c-14.138 0-25.6-11.462-25.6-25.6v-103.131c0-13.897 10.971-25.6 25.6-25.6h22.674c-19.080-138.616-131.058-245.963-270.263-257.754l-1.097-0.075v16.091c0 14.138-11.462 25.6-25.6 25.6h-103.131c-14.138 0-25.6-11.462-25.6-25.6v0-102.766c0-14.629 11.337-25.6 25.6-25.6h103.131c14.138 0 25.6 11.462 25.6 25.6v0 35.109c71.102 5.318 135.294 31.161 187.696 71.553l-0.816-0.604 204.069-469.577c4.078-9.054 13.022-15.242 23.411-15.242 11.487 0 21.207 7.566 24.449 17.987l0.049 0.181 46.811 152.503c9.874 32.183 34.743 57.051 66.926 66.926l152.503 46.811c10.602 3.29 18.168 13.010 18.168 24.497 0 10.389-6.189 19.333-15.081 23.346l-0.161 0.065zM501.76 762.514h51.2v-51.566h-51.2v51.2zM176.274 340.48h-51.931v51.2h51.2v-51.2zM765.074 223.086c-48.642-15.117-86.186-52.661-101.013-100.225l-0.29-1.078-25.966-85.943-164.206 377.417 377.417-164.206-85.943-25.966zM190.537 928.914c0 14.994-9.874 31.086-25.966 31.086s-25.966-16.091-25.966-31.086v-107.52h-107.52c-14.994 0-31.086-9.874-31.086-25.966s16.091-25.966 31.086-25.966h107.52v-107.52c0-14.994 9.874-31.086 25.966-31.086s25.966 16.091 25.966 31.086v107.52h107.52c14.994 0 31.086 9.874 31.086 25.966s-16.091 25.966-31.086 25.966h-107.52v107.52z" />
<glyph unicode="&#xe91a;" glyph-name="adjust" d="M987.52 119.040h-480.64c-16.737 63.28-73.373 109.208-140.773 109.44h-0.027c-68.48 0-124.8-46.72-141.44-109.44h-188.16c-20.324 0-36.8-16.476-36.8-36.8s16.476-36.8 36.8-36.8v0h188.16c16.737-63.28 73.373-109.208 140.773-109.44h0.027c68.48 0 124.8 46.72 140.8 109.44h481.28c20.324 0 36.8 16.476 36.8 36.8s-16.476 36.8-36.8 36.8v0zM364.8 8.96c-40.648 0-73.6 32.952-73.6 73.6s32.952 73.6 73.6 73.6v0c40.648 0 73.6-32.952 73.6-73.6s-32.952-73.6-73.6-73.6v0zM986.88 484.48h-188.16c-16.497 63.55-73.208 109.769-140.765 110.080h-0.035c-68.48 0-124.8-47.36-140.8-110.080h-481.28c-20.147 0-36.48-16.333-36.48-36.48s16.333-36.48 36.48-36.48h480.64c16.497-63.55 73.208-109.769 140.765-110.080h0.035c68.48 0 124.8 47.36 141.44 110.080h188.16c20.147 0 36.48 16.333 36.48 36.48s-16.333 36.48-36.48 36.48v0zM657.92 375.040c-40.471 0-73.28 32.809-73.28 73.28s32.809 73.28 73.28 73.28v0c40.648 0 73.6-32.952 73.6-73.6s-32.952-73.6-73.6-73.6v0zM36.48 776.96h188.16c16.737-63.28 73.373-109.208 140.773-109.44h0.027c68.48 0 124.8 46.72 140.8 109.44h481.28c20.324 0 36.8 16.476 36.8 36.8s-16.476 36.8-36.8 36.8v0h-480.64c-16.737 63.28-73.373 109.208-140.773 109.44h-0.027c-69.12 0-125.44-46.72-142.080-109.44h-187.52c-20.324 0-36.8-16.476-36.8-36.8s16.476-36.8 36.8-36.8v0zM365.44 887.040c40.648 0 73.6-32.952 73.6-73.6s-32.952-73.6-73.6-73.6v0c-40.648 0-73.6 32.952-73.6 73.6s32.952 73.6 73.6 73.6v0z" />
<glyph unicode="&#xe91b;" glyph-name="cutting" horiz-adv-x="1017" d="M478.587 469.408l-382.549 320.125c15.393 2.663 33.12 4.185 51.203 4.185 76.763 0 147.119-27.43 201.801-73.022l-0.506 0.41 215.684-181.271 46.818 40.016-226.088 186.873c-64.633 54.389-148.793 87.436-240.671 87.436-29.59 0-58.38-3.428-85.994-9.908l2.539 0.502-37.615-8.803c-11.236-2.48-19.928-11.173-22.373-22.215l-0.036-0.194c-0.531-2.126-0.835-4.566-0.835-7.078 0-9.135 4.027-17.329 10.403-22.903l0.036-0.030 421.365-353.338zM945.169 296.941l-205.28 172.467-46.818-40.016 213.283-179.67c31.282-26.31 51.023-65.471 51.023-109.243 0-78.678-63.781-142.459-142.459-142.459-34.906 0-66.88 12.554-91.653 33.394l0.217-0.178c-54.821 46.018-48.819 104.841-42.817 160.063 5.202 47.619 10.404 96.838-27.211 128.45l-44.417 37.215-46.818-40.016 52.821-44.017c12.005-10.404 10.404-35.614 6.002-76.030-6.403-62.024-15.606-146.857 63.625-213.683 34.917-29.417 80.4-47.293 130.057-47.293 62.206 0 117.86 28.051 155.002 72.195l0.252 0.308c29.398 34.911 47.261 80.379 47.261 130.020 0 62.007-27.873 117.505-71.773 154.646l-0.298 0.245zM144.456 45.243c-29.666 0.008-58.51 3.508-86.15 10.111l2.517-0.507-37.615 8.803c-13.461 3.151-23.331 15.052-23.331 29.259 0 9.303 4.232 17.617 10.877 23.122l0.050 0.040 604.236 506.998c12.405 10.404 10.404 35.614 6.002 76.030-6.403 62.024-15.606 146.857 63.625 213.683 34.917 29.417 80.4 47.293 130.057 47.293 62.206 0 117.86-28.051 155.002-72.195l0.252-0.308c29.397-34.606 47.275-79.795 47.275-129.161 0-6.513-0.311-12.953-0.919-19.306l0.063 0.809c-4.676-55.361-31.249-103.733-70.918-137l-0.31-0.253-560.219-469.784c-64.627-54.307-148.674-87.384-240.44-87.634h-0.054zM96.038 109.268c15.151-2.579 32.603-4.054 50.399-4.054 77.13 0 147.793 27.693 202.586 73.679l-0.487-0.398 557.818 471.384c31.282 26.31 51.023 65.471 51.023 109.243 0 78.678-63.781 142.459-142.459 142.459-34.906 0-66.88-12.554-91.653-33.394l0.217 0.178c-54.821-46.018-48.419-104.841-42.417-160.063 4.802-47.619 10.004-96.838-27.611-128.45zM814.718 54.046c-0.098 0-0.214-0.001-0.33-0.001-45.723 0-83.267 35.016-87.279 79.694l-0.024 0.337c-0.209 2.266-0.329 4.901-0.329 7.564 0 21.591 7.844 41.35 20.838 56.583l-0.101-0.122c14.462 17.547 35.511 29.213 59.312 31.191l0.312 0.021c2.349 0.221 5.079 0.347 7.839 0.347 21.57 0 41.344-7.687 56.732-20.472l-0.146 0.118c19.365-16.26 31.589-40.481 31.589-67.557 0-45.935-35.182-83.653-80.069-87.679l-0.339-0.025zM814.718 170.091h-2.401c-14.531-1.136-25.891-13.207-25.891-27.931 0-8.722 3.986-16.513 10.236-21.65l0.049-0.039c4.872-4.206 11.266-6.768 18.258-6.768 8.76 0 16.581 4.021 21.718 10.319l0.040 0.051c4.072 4.676 6.554 10.83 6.554 17.563 0 1.002-0.055 1.991-0.162 2.965l0.011-0.12c-0.409 7.816-4.21 14.669-9.947 19.165l-0.057 0.043c-4.77 3.752-10.863 6.017-17.485 6.017-0.324 0-0.648-0.005-0.969-0.016l0.047 0.001zM616.241 457.404c0-14.807-12.003-26.81-26.81-26.81s-26.81 12.003-26.81 26.81c0 14.807 12.003 26.81 26.81 26.81s26.81-12.003 26.81-26.81zM815.118 669.487c-0.137-0.001-0.299-0.001-0.461-0.001-48.62 0-88.034 39.414-88.034 88.034 0 27.115 12.259 51.367 31.536 67.516l0.137 0.112c15.338 12.655 35.194 20.329 56.843 20.329 2.669 0 5.311-0.117 7.921-0.345l-0.339 0.024c24.022-2.034 45.022-13.522 59.517-30.682l0.107-0.13c12.93-15.225 20.794-35.105 20.794-56.822 0-48.615-39.406-88.026-88.019-88.034h-0.001zM815.118 785.532c-6.837-0.124-13.092-2.515-18.070-6.451l0.063 0.048c-5.508-4.762-9.205-11.49-9.993-19.082l-0.011-0.126c-0.034-0.524-0.053-1.135-0.053-1.752 0-7.135 2.594-13.664 6.889-18.696l-0.033 0.040c5.176-6.348 12.997-10.37 21.758-10.37 6.992 0 13.386 2.562 18.294 6.799l-0.036-0.030c5.526 4.691 9.142 11.486 9.6 19.132l0.004 0.075c0.096 0.853 0.151 1.843 0.151 2.845 0 6.733-2.482 12.887-6.581 17.596l0.028-0.032c-4.671 5.425-11.241 9.101-18.668 9.99l-0.139 0.014z" />
<glyph unicode="&#xe91c;" glyph-name="dart" horiz-adv-x="1056" d="M542.239-64h-5.385c-14.719 2.628-25.747 15.331-25.747 30.609 0 1.919 0.174 3.797 0.507 5.62l-0.029-0.19 161.968 925.825h-642.485c-17.158 0-31.068 13.91-31.068 31.068s13.91 31.068 31.068 31.068v0h679.767c17.004-0.202 30.71-14.033 30.71-31.066 0-1.904-0.171-3.767-0.499-5.577l0.028 0.19-168.181-961.864c-2.813-14.621-15.437-25.538-30.638-25.683h-0.016zM1025.243 804.246h-314.408c-17.158 0-31.068 13.91-31.068 31.068s13.91 31.068 31.068 31.068v0h314.408c17.158 0 31.068-13.91 31.068-31.068s-13.91-31.068-31.068-31.068v0zM403.883 835.728c-0.084-0.001-0.182-0.001-0.281-0.001-15.469 0-28.262 11.458-30.354 26.351l-0.019 0.162-6.628 41.424c-0.208 1.35-0.326 2.907-0.326 4.492 0 15.519 11.379 28.381 26.249 30.696l0.175 0.022c1.491 0.254 3.208 0.398 4.959 0.398 15.397 0 28.179-11.201 30.64-25.899l0.025-0.182 6.214-41.424c0.21-1.368 0.331-2.945 0.331-4.551 0-15.602-11.35-28.554-26.243-31.048l-0.184-0.026zM511.586 132.764c-0.084-0.001-0.182-0.001-0.281-0.001-15.469 0-28.262 11.458-30.354 26.351l-0.019 0.162-13.256 85.333c-0.292 1.578-0.459 3.395-0.459 5.25 0 15.256 11.297 27.873 25.982 29.942l0.16 0.018c1.491 0.254 3.208 0.398 4.959 0.398 15.397 0 28.179-11.201 30.64-25.899l0.025-0.182 13.256-85.333c0.21-1.368 0.331-2.945 0.331-4.551 0-15.602-11.35-28.554-26.243-31.048l-0.184-0.026zM474.718 367.223c-15.451 0.22-28.195 11.538-30.629 26.329l-0.025 0.183-13.256 84.919c-0.21 1.368-0.331 2.945-0.331 4.551 0 15.602 11.35 28.554 26.243 31.048l0.184 0.026c1.455 0.245 3.132 0.385 4.842 0.385 15.458 0 28.244-11.442 30.35-26.319l0.019-0.163 13.67-84.919c0.21-1.368 0.331-2.945 0.331-4.551 0-15.602-11.35-28.554-26.243-31.048l-0.184-0.026zM438.265 601.683c-15.397 0.007-28.175 11.214-30.629 25.916l-0.025 0.182-13.256 85.333c-0.254 1.491-0.398 3.208-0.398 4.959 0 15.397 11.201 28.179 25.899 30.64l0.182 0.025c1.472 0.247 3.168 0.388 4.896 0.388 15.541 0 28.417-11.411 30.706-26.312l0.022-0.173 13.256-85.333c0.292-1.578 0.459-3.395 0.459-5.25 0-15.256-11.297-27.873-25.982-29.942l-0.16-0.018zM540.997-56.958c-15.397 0.007-28.175 11.214-30.629 25.916l-0.025 0.182-6.214 41.424c-0.429 1.935-0.675 4.159-0.675 6.439 0 17.158 13.91 31.068 31.068 31.068 16.071 0 29.291-12.202 30.903-27.847l0.011-0.133 6.214-41.424c0.254-1.491 0.398-3.208 0.398-4.959 0-15.397-11.201-28.179-25.899-30.64l-0.182-0.025z" />
<glyph unicode="&#xe91d;" glyph-name="delete-node" horiz-adv-x="951" d="M935.497 268.8l-467.383 202.24c44.183 50.878 73.997 115.323 82.49 186.318l0.162 1.659h28.16c14.138 0 25.6 11.462 25.6 25.6v103.497c0 14.138-11.462 25.6-25.6 25.6v0h-102.766c-14.138 0-25.6-11.462-25.6-25.6v-103.131c0-13.897 10.971-25.6 25.6-25.6h22.674c-19.080-138.616-131.058-245.963-270.263-257.754l-1.097-0.075v16.091c0 14.138-11.462 25.6-25.6 25.6h-103.131c-14.138 0-25.6-11.462-25.6-25.6v0-102.766c0-14.629 11.337-25.6 25.6-25.6h103.131c14.138 0 25.6 11.462 25.6 25.6v0 35.109c71.102 5.318 135.294 31.161 187.696 71.553l-0.816-0.604 204.069-469.577c4.078-9.054 13.022-15.242 23.411-15.242 11.487 0 21.207 7.566 24.449 17.987l0.049 0.181 46.811 152.503c9.874 32.183 34.743 57.051 66.926 66.926l152.503 46.811c10.602 3.29 18.168 13.010 18.168 24.497 0 10.389-6.189 19.333-15.081 23.346l-0.161 0.065zM501.76 762.514h51.2v-51.566h-51.2v51.2zM176.274 340.48h-51.931v51.2h51.2v-51.2zM765.074 223.086c-48.642-15.117-86.186-52.661-101.013-100.225l-0.29-1.078-25.966-85.943-164.206 377.417 377.417-164.206-85.943-25.966zM31.086 960c-14.994 0-31.086-9.874-31.086-25.966s16.091-25.966 31.086-25.966h266.971c14.994 0 31.086 9.874 31.086 25.6 0 16.823-16.091 26.331-31.086 26.331h-266.971z" />
<glyph unicode="&#xe91e;" glyph-name="gathering" horiz-adv-x="1014" d="M344.252 486.803c-149.242 0-321.567 117.006-330.721 121.384-8.241 5.491-13.596 14.746-13.596 25.251 0 6.835 2.267 13.14 6.090 18.205l-0.055-0.077c5.413 7.444 14.092 12.228 23.89 12.228 5.909 0 11.411-1.74 16.023-4.736l-0.114 0.070c68.054-45.37 262.268-151.63 368.927-97.505 16.715 8.756 21.093 15.521 21.093 16.317 0 13.929-46.962 50.145-70.044 67.258-46.962 35.42-91.137 68.452-88.749 110.638 2.731 24.433 18.121 44.724 39.372 54.351l0.425 0.172c61.687 36.216 139.691-2.388 214.909-39.798 65.269-32.634 134.517-66.065 174.315-42.982 8.756 5.174 10.347 8.756 10.347 8.756 0 15.123-58.901 52.931-86.361 71.238-54.523 36.216-93.525 62.085-91.535 98.301 1.894 17.98 13.355 32.891 29.135 39.677l0.316 0.121c92.729 50.941 370.916-46.962 425.838-67.258 11.866-4.126 20.231-15.215 20.231-28.256 0-4.167-0.854-8.134-2.396-11.736l0.074 0.195c-4.295-11.815-15.427-20.101-28.494-20.101-4.073 0-7.958 0.805-11.505 2.265l0.201-0.073c-119.394 43.38-303.658 93.127-366.937 76.81 16.392-12.92 34.953-26.033 54.18-38.186l2.731-1.612c58.503-39.798 114.22-75.616 113.026-123.373-1.84-25.615-17.438-47.194-39.378-57.529l-0.42-0.178c-68.85-39.798-151.63 0-232.022 39.798-61.289 30.246-124.567 61.687-159.192 39.798-8.358-4.776-9.949-7.96-9.949-7.96 2.388-10.745 43.38-39.798 65.269-58.105 50.145-39.798 97.505-73.228 93.525-119.394-5.006-29.807-25.283-53.917-52.361-64.281l-0.57-0.192c-25.985-12.382-56.471-19.613-88.646-19.613-2.415 0-4.821 0.041-7.217 0.122l0.348-0.009zM554.385-64c-0.080-0.001-0.175-0.001-0.27-0.001-14.862 0-27.153 11.009-29.163 25.316l-0.018 0.156-89.147 616.072c-0.45 1.942-0.708 4.171-0.708 6.461 0 16.485 13.364 29.848 29.848 29.848 15.677 0 28.532-12.086 29.753-27.449l0.007-0.104 89.147-614.878c0.2-1.297 0.314-2.793 0.314-4.315 0-14.91-10.932-27.267-25.218-29.491l-0.168-0.022zM828.99 123.050c-0.080-0.001-0.175-0.001-0.27-0.001-14.862 0-27.153 11.009-29.163 25.316l-0.018 0.156-84.77 571.1c-0.169 1.195-0.266 2.576-0.266 3.98 0 16.522 13.394 29.915 29.915 29.915 15.118 0 27.617-11.215 29.632-25.779l0.018-0.157 84.372-571.498c0.2-1.297 0.314-2.793 0.314-4.315 0-14.91-10.932-27.267-25.218-29.491l-0.168-0.022zM569.906 704.497c-0.119-0.002-0.26-0.003-0.401-0.003-16.265 0-29.45 13.185-29.45 29.45 0 0.141 0.001 0.282 0.003 0.422v-0.021 164.365c0 16.485 13.364 29.848 29.848 29.848s29.848-13.364 29.848-29.848v0-164.365c0-16.485-13.364-29.848-29.848-29.848v0zM308.036 488.793c-16.485 0-29.848 13.364-29.848 29.848v0 226.052c0 16.485 13.364 29.848 29.848 29.848s29.848-13.364 29.848-29.848v0-226.848c-0.223-16.094-13.322-29.055-29.448-29.055-0.141 0-0.282 0.001-0.422 0.003h0.021z" />
<glyph unicode="&#xe91f;" glyph-name="knifepleat" horiz-adv-x="1018" d="M992.957 887.030l-403.15 72.567c-1.638 0.319-3.522 0.502-5.449 0.502-7.308 0-14.002-2.628-19.189-6.989l0.046 0.037c-6.889-5.585-11.351-13.931-11.69-23.327l-0.002-0.055v-183.030l60.472-13.707v161.26l343.887-61.682v-449.512l-233.020 84.258v-64.101l252.775-91.515c3.105-1.192 6.694-1.923 10.442-2.015l0.040-0.001c6.509 0.085 12.511 2.187 17.428 5.707l-0.092-0.063c7.794 5.504 12.838 14.453 12.901 24.582v517.251c-0.178 14.922-10.997 27.266-25.213 29.806l-0.186 0.027zM731.313 737.461l-405.165 91.515c-1.887 0.413-4.055 0.65-6.279 0.65-7.259 0-13.929-2.525-19.179-6.744l0.060 0.046c-6.905-5.513-11.291-13.93-11.291-23.371 0-0.146 0.001-0.291 0.003-0.437v0.022-223.748l60.472-15.32v201.575l344.693-77.808v-479.748l-266.079 103.206v-64.907l286.236-109.657c3.228-1.193 6.957-1.924 10.844-2.015l0.041-0.001c0.162-0.003 0.353-0.005 0.544-0.005 6.148 0 11.837 1.966 16.472 5.304l-0.084-0.057c8.067 5.425 13.304 14.519 13.304 24.836 0 0.056 0 0.112 0 0.168v-0.009 547.074c-0.137 14.589-10.585 26.698-24.401 29.399l-0.191 0.031zM428.548-63.597c-1.455-0.278-3.128-0.437-4.838-0.437s-3.383 0.159-5.005 0.463l0.167-0.026-398.312 135.458c-12.039 4.023-20.562 15.194-20.562 28.356 0 0.094 0 0.188 0.001 0.282v-0.014 541.027c0.031 9.644 4.573 18.221 11.625 23.736l0.067 0.050c5.309 3.994 12.014 6.396 19.279 6.396 2.454 0 4.844-0.274 7.141-0.793l-0.216 0.041 397.506-101.191c13.074-3.651 22.515-15.43 22.576-29.423v-573.689c0.001-0.093 0.002-0.202 0.002-0.311 0-9.973-4.894-18.803-12.411-24.22l-0.088-0.061c-4.725-3.362-10.567-5.446-16.885-5.643l-0.048-0.001zM60.472 123.465l337.033-113.688v507.162l-337.033 85.871zM428.548 510.085c-12.452 0.029-23.133 7.579-27.742 18.348l-0.075 0.197-108.85 258.822c-2.266 4.138-3.599 9.067-3.599 14.306 0 16.699 13.537 30.236 30.236 30.236 14.193 0 26.103-9.78 29.357-22.968l0.043-0.208 108.044-258.822c1.664-3.629 2.633-7.872 2.633-12.342 0-12.56-7.658-23.331-18.56-27.899l-0.199-0.074c-1.391-0.236-2.994-0.371-4.628-0.371-2.363 0-4.66 0.282-6.859 0.815l0.198-0.041zM724.863 677.795c-0.080-0.001-0.175-0.001-0.269-0.001-10.589 0-19.872 5.592-25.056 13.985l-0.073 0.127-141.102 221.732c-2.667 4.379-4.245 9.674-4.245 15.339 0 10.407 5.329 19.569 13.406 24.907l0.111 0.069c4.379 2.667 9.674 4.245 15.339 4.245 10.407 0 19.569-5.329 24.907-13.406l0.069-0.111 143.118-220.523c2.667-4.379 4.245-9.674 4.245-15.339 0-10.407-5.329-19.569-13.406-24.907l-0.111-0.069c-4.642-3.615-10.508-5.861-16.89-6.046l-0.042-0.001z" />
<glyph unicode="&#xe920;" glyph-name="grid" horiz-adv-x="1028" d="M988.822 257.079h-196.357v389.517h196.357c21.997 0.334 39.701 18.245 39.701 40.29 0 0.676-0.017 1.349-0.050 2.017l0.004-0.094c0 21.901-17.754 39.655-39.655 39.655v0h-196.357v196.357c-2.603 19.967-19.507 35.228-39.975 35.228s-37.372-15.261-39.953-35.025l-0.022-0.203v-196.357h-391.435v196.357c-2.603 19.967-19.507 35.228-39.975 35.228s-37.372-15.261-39.953-35.025l-0.022-0.203v-196.357h-195.718c-0.19 0.003-0.415 0.005-0.64 0.005-21.901 0-39.655-17.754-39.655-39.655 0-0.002 0-0.004 0-0.005v0c-0.029-0.573-0.046-1.244-0.046-1.919 0-22.254 18.041-40.295 40.295-40.295 0.016 0 0.032 0 0.048 0h195.715v-391.435h-195.718c-1.521 0.204-3.28 0.32-5.067 0.32-22.254 0-40.295-18.041-40.295-40.295s18.041-40.295 40.295-40.295c1.786 0 3.545 0.116 5.27 0.341l-0.203-0.022h195.718v-193.799c-0.204-1.521-0.32-3.28-0.32-5.067 0-22.254 18.041-40.295 40.295-40.295s40.295 18.041 40.295 40.295c0 1.786-0.116 3.545-0.341 5.27l0.022-0.203v195.718h391.435v-195.718c-0.204-1.521-0.32-3.28-0.32-5.067 0-22.254 18.041-40.295 40.295-40.295s40.295 18.041 40.295 40.295c0 1.786-0.116 3.545-0.341 5.27l0.022-0.203v195.718h196.357c19.967 2.603 35.228 19.507 35.228 39.975s-15.261 37.372-35.025 39.953l-0.203 0.022zM712.515 257.079h-391.435v389.517h391.435z" />
<glyph unicode="&#xe921;" glyph-name="design" horiz-adv-x="1026" d="M1014.959 708.671c5.579 5.38 9.044 12.92 9.044 21.269 0 0.151-0.001 0.301-0.003 0.451v-0.023c-0.417 7.647-3.806 14.429-9.023 19.27l-0.018 0.016-169.361 171.772c-5.527 5.363-13.075 8.669-21.396 8.669s-15.869-3.306-21.404-8.677l0.008 0.007-276.040-276.040-221.194 221.796c-3.472 2.844-7.446 5.271-11.732 7.11l-0.322 0.123-254.343 84.379c-2.78 0.935-5.982 1.474-9.309 1.474-16.643 0-30.135-13.492-30.135-30.135 0-3.327 0.539-6.529 1.535-9.522l-0.061 0.213 84.379-254.343c1.961-4.608 4.388-8.582 7.302-12.142l-0.070 0.088 221.796-221.194-276.040-276.040c-5.363-5.527-8.669-13.075-8.669-21.396s3.306-15.869 8.677-21.404l-0.007 0.008 171.772-169.361c5.462-5.506 13.031-8.914 21.396-8.914s15.934 3.408 21.394 8.912l275.439 275.439 258.562-257.959c16.326-16.158 38.79-26.14 63.586-26.14s47.26 9.982 63.593 26.148l84.974 84.974c16.158 16.326 26.14 38.79 26.14 63.586s-9.982 47.26-26.148 63.593l0.008-0.008-257.959 258.562 275.437 275.437zM785.328 302.446l-42.792-42.792-500.85 500.85 42.19 42.792 221.796-221.796zM873.323 217.464l-127.774-127.171-42.19 42.19 127.171 127.171zM156.704 676.125l42.792 42.19 500.85-500.85-42.792-42.792zM228.426 832.829l-101.255-101.255-50.025 151.28zM442.387 220.478l-21.697 21.697c-5.431 5.327-12.879 8.614-21.095 8.614s-15.664-3.288-21.1-8.619l0.005 0.005c-5.506-5.462-8.914-13.031-8.914-21.396s3.408-15.934 8.912-21.394l21.097-21.097-42.19-42.19-21.697 21.095c-5.431 5.327-12.879 8.614-21.095 8.614s-15.664-3.288-21.1-8.619l0.005 0.005c-5.363-5.527-8.669-13.075-8.669-21.396s3.306-15.869 8.677-21.404l-0.007 0.008 21.095-21.095-84.982-84.982-127.171 127.774 254.945 251.932 127.171-127.171zM955.291 90.293l-85.584-85.584c-5.365-5.472-12.834-8.864-21.095-8.864s-15.73 3.392-21.090 8.859l-42.195 42.195 127.171 127.171 42.792-42.19c5.152-5.397 8.323-12.725 8.323-20.793s-3.171-15.396-8.334-20.805l0.011 0.012zM571.969 602.594l254.343 254.945 125.363-127.171-84.982-84.982-21.095 21.095c-5.527 5.363-13.075 8.669-21.396 8.669s-15.869-3.306-21.404-8.677l0.008 0.007c-5.327-5.431-8.614-12.879-8.614-21.095s3.288-15.664 8.619-21.1l-0.005 0.005 21.095-21.697-42.19-42.19-21.095 21.095c-5.462 5.506-13.031 8.914-21.396 8.914s-15.934-3.408-21.394-8.912l-0.002-0.002c-5.327-5.431-8.614-12.879-8.614-21.095s3.288-15.664 8.619-21.1l21.692-21.692-42.792-42.19z" />
<glyph unicode="&#xe922;" glyph-name="mirror" horiz-adv-x="867" d="M433.694 960c-16.634 0-30.118-13.484-30.118-30.118v0-139.746c0-16.634 13.484-30.118 30.118-30.118v0c16.634 0 30.118 13.484 30.118 30.118v0 139.746c0 16.634-13.484 30.118-30.118 30.118v0zM433.694 685.929c-16.634 0-30.118-13.484-30.118-30.118v0-139.746c0-16.634 13.484-30.118 30.118-30.118v0c16.634 0 30.118 13.484 30.118 30.118v0 139.746c0 16.634-13.484 30.118-30.118 30.118v0zM433.694 410.052c-16.634 0-30.118-13.484-30.118-30.118v0-139.746c0-16.634 13.484-30.118 30.118-30.118v0c16.634 0 30.118 13.484 30.118 30.118v0 139.746c0 16.634-13.484 30.118-30.118 30.118v0zM433.694 135.981c-16.634 0-30.118-13.484-30.118-30.118v0-139.746c0-16.634 13.484-30.118 30.118-30.118v0c16.634 0 30.118 13.484 30.118 30.118v0 139.746c0 16.634-13.484 30.118-30.118 30.118v0zM280.696 752.791l-240.941 74.089c-2.775 0.931-5.97 1.469-9.291 1.469-6.967 0-13.382-2.366-18.485-6.338l0.068 0.051c-7.336-5.311-12.053-13.849-12.053-23.489 0-0.213 0.002-0.425 0.007-0.637l-0.001 0.032v-699.934c-0.004-0.18-0.006-0.393-0.006-0.606 0-9.639 4.717-18.177 11.969-23.431l0.084-0.058c4.971-3.761 11.256-6.024 18.071-6.024 3.005 0 5.908 0.44 8.646 1.259l-0.213-0.055 240.941 74.089c12.265 3.531 21.086 14.652 21.086 27.833 0 0.168-0.001 0.335-0.004 0.502v-0.025 552.96c0.008 0.251 0.012 0.546 0.012 0.842 0 12.742-8.242 23.559-19.686 27.409l-0.204 0.060zM241.544 193.807l-180.706-55.416v619.219l180.706-55.416zM855.341 822.061c-4.916 3.797-11.166 6.085-17.95 6.085-3.051 0-5.994-0.463-8.763-1.323l0.209 0.056-240.941-74.089c-12.555-3.537-21.615-14.856-21.685-28.303v-552.968c0.069-13.454 9.13-24.774 21.477-28.26l0.208-0.050 240.941-74.089c2.423-0.659 5.204-1.038 8.074-1.038 6.908 0 13.303 2.194 18.527 5.923l-0.097-0.066c7.336 5.311 12.053 13.849 12.053 23.489 0 0.213-0.002 0.425-0.007 0.637l0.001-0.032v699.934c0.004 0.18 0.006 0.393 0.006 0.606 0 9.639-4.717 18.177-11.969 23.431l-0.084 0.058zM807.755 138.391l-180.706 55.416v508.386l180.706 55.416z" />
<glyph unicode="&#xe923;" glyph-name="nodes" horiz-adv-x="1028" d="M1004.157 325.036l-541.163 236.308c51.421 59.249 86.122 134.281 96.018 216.937l0.188 1.933h32.47c16.604 0 30.065 13.46 30.065 30.065v0 119.657c0 16.604-13.46 30.065-30.065 30.065v0h-120.258c-16.604 0-30.065-13.46-30.065-30.065v0-120.258c0.33-16.47 13.595-29.735 30.033-30.064h27.089c-22.733-161.348-152.961-286.23-314.95-300.551l-1.329-0.095v18.64c0 16.604-13.46 30.065-30.065 30.065v0h-122.062c-16.604 0-30.065-13.46-30.065-30.065v0-120.258c0-16.604 13.46-30.065 30.065-30.065v0h120.258c16.604 0 30.065 13.46 30.065 30.065v0 40.888c82.773 6.241 157.516 36.232 218.643 83.095l-0.976-0.718 240.517-546.574c4.893-10.641 15.412-17.921 27.644-18.039h0.015c0.008 0 0.017 0 0.026 0 13.271 0 24.492 8.773 28.18 20.836l0.055 0.209 54.718 180.388c11.6 37.23 40.337 65.966 76.74 77.344l0.826 0.223 180.388 54.718c12.087 4.080 20.636 15.316 20.636 28.548 0 12.097-7.144 22.525-17.443 27.295l-0.186 0.077zM499.072 899.871h60.129v-60.129h-60.129v60.129zM119.657 408.615h-60.129v60.129h60.129zM805.731 272.122c-57.764-17.911-102.348-62.494-119.916-118.98l-0.342-1.278-30.666-99.814-190.61 438.943 438.943-190.61z" />
<glyph unicode="&#xe924;" glyph-name="pipping" horiz-adv-x="1017" d="M533.257 771.72c2.547 24.727 18.33 45.236 40.056 54.498l0.434 0.164-552.288-180.587c-12.581-4.054-21.523-15.658-21.523-29.35 0-4.008 0.766-7.837 2.16-11.349l-0.073 0.208c4.041-12.27 15.368-20.984 28.74-21.055h0.008c1.4-0.291 3.009-0.458 4.656-0.458s3.256 0.167 4.81 0.484l-0.154-0.026 500.46 161.961c-4.573 7.002-7.294 15.575-7.294 24.784 0 0.255 0.002 0.509 0.006 0.763v-0.038zM1014.687 938.54c-3.869 12.63-15.426 21.656-29.091 21.656-4.108 0-8.026-0.816-11.601-2.294l0.202 0.074-348.622-114.588c3.455 0.288 7.478 0.452 11.54 0.452s8.084-0.164 12.063-0.487l-0.523 0.034c1.187 0.035 2.583 0.055 3.984 0.055 32.491 0 62.492-10.66 86.697-28.673l-0.387 0.275 256.304 83.815c12.484 3.959 21.374 15.444 21.374 29.005 0 3.835-0.711 7.505-2.008 10.883l0.070-0.208zM648.655 667.255c-80.981 0-145.765 45.754-145.765 104.060s63.975 104.060 145.765 104.060 145.765-45.754 145.765-104.060-63.975-104.060-145.765-104.060zM648.655 814.64c-48.588 0-85.030-22.675-85.030-43.325s36.441-43.325 85.030-43.325 85.030 22.675 85.030 43.325-36.441 43.325-85.030 43.325zM533.257-64c-16.68 0.225-30.143 13.687-30.368 30.346v795.251c0 16.772 13.596 30.368 30.368 30.368s30.368-13.596 30.368-30.368v0-795.23c0-16.772-13.596-30.368-30.368-30.368v0zM764.052 14.956c-0.121-0.002-0.264-0.003-0.408-0.003-16.548 0-29.963 13.415-29.963 29.963 0 0.143 0.001 0.286 0.003 0.429v-0.022 726.396c0 16.772 13.596 30.368 30.368 30.368s30.368-13.596 30.368-30.368v0-726.396c0-16.772-13.596-30.368-30.368-30.368v0z" />
<glyph unicode="&#xe925;" glyph-name="stitching" horiz-adv-x="1025" d="M207.611-64c-8.283 0.186-15.754 3.518-21.294 8.844l0.010-0.010c-5.442 5.449-8.808 12.973-8.808 21.283s3.366 15.834 8.808 21.283v0l786.673 786.673c5.522 5.28 13.023 8.53 21.283 8.53 17.020 0 30.817-13.797 30.817-30.817 0-8.759-3.655-16.665-9.522-22.276l-0.012-0.011-784.665-784.665c-5.694-5.483-13.449-8.861-21.993-8.861-0.456 0-0.911 0.010-1.362 0.029l0.065-0.002zM30.118 113.895c-0.042 0-0.091 0-0.14 0-8.271 0-15.753 3.379-21.14 8.832l-0.003 0.003c-5.442 5.449-8.808 12.973-8.808 21.283s3.366 15.834 8.808 21.283v0l57.023 56.621c5.403 5.541 12.942 8.978 21.283 8.978s15.88-3.437 21.277-8.972l0.006-0.006c5.442-5.449 8.808-12.973 8.808-21.283s-3.366-15.834-8.808-21.283v0l-57.424-56.621c-5.202-5.448-12.523-8.836-20.634-8.836-0.087 0-0.174 0-0.261 0.001h0.013zM182.714 266.893c-0.042 0-0.091 0-0.14 0-8.271 0-15.753 3.379-21.14 8.832l-0.003 0.003c-5.442 5.449-8.808 12.973-8.808 21.283s3.366 15.834 8.808 21.283v0l95.975 95.975c5.482 5.533 13.083 8.958 21.484 8.958 16.702 0 30.241-13.539 30.241-30.241 0-8.301-3.345-15.821-8.76-21.285l0.002 0.002-96.376-95.975c-5.39-5.456-12.872-8.835-21.143-8.835-0.049 0-0.099 0-0.148 0h0.008zM375.065 459.244c-0.091-0.001-0.199-0.002-0.308-0.002-8.219 0-15.647 3.382-20.97 8.83l-0.006 0.006c-5.442 5.449-8.808 12.973-8.808 21.283s3.366 15.834 8.808 21.283v0l95.975 95.975c5.449 5.442 12.973 8.808 21.283 8.808s15.834-3.366 21.283-8.808v0c5.541-5.403 8.978-12.942 8.978-21.283s-3.437-15.88-8.972-21.277l-95.981-95.981c-5.39-5.456-12.872-8.835-21.143-8.835-0.049 0-0.099 0-0.148 0h0.008zM567.416 649.186c-8.314 0.008-15.838 3.382-21.283 8.834v0c-5.541 5.403-8.978 12.942-8.978 21.283s3.437 15.88 8.972 21.277l0.006 0.006 95.975 96.376c4.708 3.194 10.515 5.099 16.767 5.099 16.634 0 30.118-13.484 30.118-30.118 0-5.741-1.606-11.107-4.394-15.672l0.075 0.132-95.975-96.376c-5.271-6.063-12.745-10.092-21.163-10.834l-0.12-0.009zM759.768 843.545c-8.314 0.008-15.838 3.382-21.283 8.834v0c-5.541 5.403-8.978 12.942-8.978 21.283s3.437 15.88 8.972 21.277l0.006 0.006 56.621 57.023c5.364 5.008 12.589 8.083 20.532 8.083 16.634 0 30.118-13.484 30.118-30.118 0-7.943-3.075-15.168-8.099-20.549l0.016 0.018-56.621-57.023c-5.529-5.316-13-8.649-21.247-8.834l-0.036-0.001z" />
<glyph unicode="&#xe926;" glyph-name="taperedpleat" horiz-adv-x="1062" d="M545.106-62.334h-5.414c-14.796 2.642-25.883 15.412-25.883 30.771 0 1.929 0.175 3.817 0.51 5.65l-0.029-0.191 162.824 923.641h-645.882c-17.249 0-31.232 13.983-31.232 31.232s13.983 31.232 31.232 31.232v0h683.361c17.094-0.203 30.872-14.108 30.872-31.23 0-1.914-0.172-3.787-0.502-5.606l0.029 0.191-169.070-957.788c-1.73-15.675-14.841-27.775-30.803-27.901h-0.013zM1030.663 803.423h-316.070c-17.249 0-31.232 13.983-31.232 31.232s13.983 31.232 31.232 31.232v0h316.070c17.249 0 31.232-13.983 31.232-31.232s-13.983-31.232-31.232-31.232v0zM408.517 808.836c-15.414 0.184-28.164 11.36-30.787 26.043l-0.028 0.192-13.326 82.037c-0.218 1.378-0.343 2.967-0.343 4.584 0 15.228 11.046 27.876 25.562 30.37l0.183 0.026c1.641 0.306 3.53 0.481 5.459 0.481 15.359 0 28.129-11.087 30.743-25.694l0.028-0.189 13.326-83.286c0.262-1.519 0.412-3.269 0.412-5.054 0-15.334-11.051-28.088-25.623-30.73l-0.191-0.029zM444.747 591.876c-0.068-0.001-0.148-0.001-0.229-0.001-15.698 0-28.655 11.738-30.571 26.917l-0.016 0.152-13.742 83.286c-0.218 1.396-0.343 3.005-0.343 4.644 0 15.54 11.2 28.464 25.968 31.14l0.193 0.029c1.499 0.255 3.225 0.401 4.986 0.401 15.479 0 28.328-11.26 30.802-26.036l0.025-0.183 13.742-83.286c0.258-1.518 0.405-3.266 0.405-5.049 0-15.562-11.232-28.501-26.032-31.152l-0.192-0.028zM743.327-64c-13.668 0.051-24.981 10.071-27.048 23.164l-0.020 0.156-89.532 617.981c-0.189 1.194-0.298 2.57-0.298 3.972 0 13.503 10.041 24.66 23.064 26.412l0.137 0.015c1.087 0.155 2.341 0.243 3.617 0.243 13.566 0 24.8-9.979 26.764-22.997l0.019-0.149 89.949-615.899c0.192-1.21 0.301-2.605 0.301-4.025 0-13.586-10.010-24.835-23.057-26.773l-0.148-0.018z" />
<glyph unicode="&#xe927;" glyph-name="my-design" horiz-adv-x="911" d="M897.28 646.4l-424.107 308.053c-4.884 3.421-10.95 5.467-17.493 5.467s-12.609-2.046-17.592-5.533l0.099 0.066-424.107-308.053c-7.625-5.57-12.523-14.48-12.523-24.533s4.897-18.963 12.437-24.474l0.086-0.060 424.107-298.667c4.742-3.409 10.666-5.452 17.067-5.452s12.324 2.043 17.155 5.512l-0.088-0.060 424.107 298.667c7.875 5.547 12.957 14.601 12.957 24.842 0 9.871-4.721 18.639-12.028 24.169l-0.076 0.055zM897.28 464.213l-42.667 29.44-349.013-245.333c-14.351-10.296-32.268-16.465-51.627-16.465s-37.276 6.169-51.895 16.647l0.268-0.183-347.307 245.333-42.667-29.44c-7.624-5.483-12.53-14.328-12.53-24.32s4.906-18.837 12.441-24.259l0.089-0.061 424.107-298.667c4.742-3.409 10.666-5.452 17.067-5.452s12.324 2.043 17.155 5.512l-0.088-0.060 424.107 298.667c8.396 5.381 13.881 14.664 13.881 25.229 0 9.46-4.398 17.893-11.261 23.365l-0.060 0.046zM897.28 284.587l-42.667 29.013-347.307-245.333c-14.387-10.181-32.296-16.274-51.627-16.274s-37.239 6.093-51.909 16.463l0.282-0.189-349.013 245.333-42.667-29.013c-7.625-5.57-12.523-14.48-12.523-24.533s4.897-18.963 12.437-24.474l0.086-0.060 424.107-294.4c4.809-3.191 10.716-5.092 17.067-5.092s12.257 1.901 17.182 5.164l-0.115-0.072 426.24 293.547c8.096 5.521 13.342 14.701 13.342 25.107 0 10.223-5.064 19.264-12.821 24.75l-0.095 0.064z" />
<glyph unicode="&#xe928;" d="M1024 448c0-282.77-229.23-512-512-512s-512 229.23-512 512c0 282.77 229.23 512 512 512s512-229.23 512-512z" />
<glyph unicode="&#xe929;" d="M452.267 344.32c0 35.413 4.693 64 13.653 85.333 8.533 20.907 26.027 43.947 52.053 69.12 26.453 25.6 42.667 43.52 49.92 54.187 10.667 16.213 15.787 34.133 15.787 52.907 0 25.173-5.973 44.373-18.773 57.173-12.373 13.653-30.293 20.053-54.613 20.053-23.040 0-41.387-6.4-55.467-19.627-14.080-12.8-21.333-29.867-21.333-52.48h-96.853c0.427 47.36 16.64 84.907 48.213 112.213 31.658 25.899 72.54 41.594 117.089 41.594 3.087 0 6.157-0.075 9.208-0.224l-0.43 0.017c53.76 0 95.573-13.653 125.44-40.96 30.293-27.307 45.653-65.28 45.653-114.347 0-43.52-20.48-86.187-61.013-128.427l-49.493-48.64c-17.493-20.053-26.453-49.493-27.307-87.893h-90.88zM445.867 219.307c0 15.787 4.693 28.587 14.933 38.4 9.813 9.813 23.040 14.933 40.107 14.933s30.293-5.12 40.533-15.36c9.813-9.813 14.507-22.613 14.507-37.973 0-14.507-4.267-26.88-14.080-36.693s-23.467-14.933-40.96-14.933c-17.92 0-31.573 5.12-40.96 14.933-8.728 9.226-14.095 21.711-14.095 35.45 0 0.437 0.005 0.873 0.016 1.308l-0.001-0.064z" />
<glyph unicode="&#xe92a;" glyph-name="side-menu-closet" d="M426.667 960h-384c-23.564 0-42.667-19.103-42.667-42.667v0-469.333c0-23.564 19.103-42.667 42.667-42.667v0h384c23.564 0 42.667 19.103 42.667 42.667v0 469.333c0 23.564-19.103 42.667-42.667 42.667v0zM981.333 490.667h-384c-23.564 0-42.667-19.103-42.667-42.667v0-469.333c0-23.564 19.103-42.667 42.667-42.667v0h384c23.564 0 42.667 19.103 42.667 42.667v0 469.333c0 23.564-19.103 42.667-42.667 42.667v0zM426.667 320h-384c-23.564 0-42.667-19.103-42.667-42.667v0-298.667c0-23.564 19.103-42.667 42.667-42.667v0h384c23.564 0 42.667 19.103 42.667 42.667v0 298.667c0 23.564-19.103 42.667-42.667 42.667v0zM981.333 960h-384c-23.564 0-42.667-19.103-42.667-42.667v0-298.667c0-23.564 19.103-42.667 42.667-42.667v0h384c23.564 0 42.667 19.103 42.667 42.667v0 298.667c0 23.564-19.103 42.667-42.667 42.667v0z" />
<glyph unicode="&#xe92b;" glyph-name="spin-left" horiz-adv-x="1161" d="M426.667 780.459h506.539l-51.2 75.093c-7.604 10.637-12.158 23.907-12.158 38.241 0 36.572 29.647 66.219 66.219 66.219 0.434 0 0.868-0.004 1.3-0.013l-0.065 0.001c0.019 0 0.042 0 0.065 0 23.064 0 43.654-10.59 57.173-27.173l0.106-0.134 158.379-195.925c4.749-5.817 7.626-13.325 7.626-21.504s-2.877-15.687-7.674-21.566l0.049 0.062-158.379-195.925c-13.499-16.71-33.989-27.308-56.953-27.308-0.137 0-0.275 0-0.412 0.001h0.021c-25.493 0.192-47.642 14.327-59.214 35.15l-0.178 0.349c-4.766 8.914-7.566 19.499-7.566 30.737 0 14.029 4.363 27.039 11.805 37.747l-0.143-0.218 51.2 75.776h-506.539c-78.507 0-153.6-30.72-208.896-85.333-53.795-52.813-87.136-126.302-87.136-207.577 0-160.613 130.203-290.816 290.816-290.816 1.834 0 3.664 0.017 5.49 0.051l-0.274-0.004h143.36c17.067 0 34.133-6.827 46.421-19.115 12.082-11.79 19.576-28.236 19.576-46.431 0-35.818-29.036-64.853-64.853-64.853-0.402 0-0.803 0.004-1.204 0.011l0.060-0.001h-143.36c-0.181 0-0.395 0-0.609 0-117.386 0-223.753 47.178-301.174 123.608l0.045-0.044c-77.053 76.151-124.774 181.836-124.774 298.667s47.721 222.516 124.734 298.627l0.041 0.040c77.376 76.385 183.743 123.563 301.129 123.563 0.214 0 0.428 0 0.642 0h-0.033z" />
<glyph unicode="&#xe92c;" glyph-name="spin-right" horiz-adv-x="1161" d="M733.867 780.459h-506.539l51.2 75.093c7.475 10.576 11.948 23.737 11.948 37.942 0 24.104-12.878 45.199-32.129 56.782l-0.299 0.167c-9.953 6.001-21.969 9.553-34.815 9.557h-0.001c-0.019 0-0.042 0-0.065 0-23.064 0-43.654-10.59-57.173-27.173l-0.106-0.134-159.061-195.925c-4.749-5.817-7.626-13.325-7.626-21.504s2.877-15.687 7.674-21.566l-0.049 0.062 158.379-195.925c13.499-16.71 33.989-27.308 56.953-27.308 0.137 0 0.275 0 0.412 0.001h-0.021c25.493 0.192 47.642 14.327 59.214 35.15l0.178 0.349c4.766 8.914 7.566 19.499 7.566 30.737 0 14.029-4.363 27.039-11.805 37.747l0.143-0.218-51.2 75.776h506.539c78.507 0 153.6-30.72 208.896-85.333 53.795-52.813 87.136-126.302 87.136-207.577 0-160.613-130.203-290.816-290.816-290.816-1.834 0-3.664 0.017-5.49 0.051l0.274-0.004h-143.36c-17.067 0-34.133-6.827-46.421-19.115-12.092-11.792-19.592-28.244-19.592-46.448 0-35.818 29.036-64.853 64.853-64.853 0.648 0 1.294 0.010 1.937 0.028l-0.094-0.002h143.36c113.323 0 221.867 44.373 301.739 123.563 77.053 76.151 124.774 181.836 124.774 298.667s-47.721 222.516-124.734 298.627l-0.041 0.040c-77.376 76.385-183.743 123.563-301.129 123.563-0.214 0-0.428 0-0.642 0h0.033z" />
<glyph unicode="&#xe92d;" glyph-name="bottom_base" horiz-adv-x="365" d="M338.739-64h-124.723c-0.002 0-0.004 0-0.005 0-3.674 0-6.67 2.903-6.821 6.54v0.014l-15.223 409.873c-2.048 50.722-5.803 127.727-9.216 193.741-3.413-66.014-7.236-143.019-9.216-193.741l-15.223-409.395v-0.137c0-3.77-3.056-6.827-6.827-6.827v0h-124.723c0 0-0.001 0-0.001 0-3.722 0-6.749 2.979-6.825 6.683v0.007l-9.216 409.668c-16.384 346.795-9.353 400.179-8.192 405.982 5.461 36.796 18.978 80.35 30.993 118.784 8.806 28.877 17.34 56.047 21.572 77.346 0.657 3.138 3.402 5.461 6.689 5.461 0 0 0.001 0 0.001 0h241.869c0 0 0.001 0 0.001 0 3.287 0 6.031-2.323 6.681-5.417l0.008-0.044c4.301-21.367 12.766-48.538 21.709-77.278 12.015-38.502 25.532-82.057 30.993-118.784 1.092-5.871 8.192-59.187-8.26-406.187l-9.216-409.6c-0.077-3.711-3.103-6.69-6.825-6.69 0 0-0.001 0-0.001 0v0zM220.638-50.347h111.411l9.079 403.115c16.998 357.786 8.875 401.34 8.533 402.978-5.393 36.318-18.227 77.551-30.652 117.419-6.073 17.155-13.243 41.615-19.463 66.452l-1.427 6.73h-230.741c-4.71-21.026-12.629-46.421-20.89-73.182-12.425-39.868-25.259-81.101-30.515-116.873l-0.137-0.683c-0.341-1.502-8.465-45.056 8.533-402.637l9.079-403.319h111.479l15.019 403.251c4.096 104.448 15.838 320.171 15.974 322.219 0 3.77 3.056 6.827 6.827 6.827s6.827-3.056 6.827-6.827v0c0.137-2.048 11.947-217.839 16.043-322.219l15.019-403.251z" />
<glyph unicode="&#xe92e;" glyph-name="bottom_elastic" horiz-adv-x="392" d="M334.848-64h-62.601c-0.010 0-0.022 0-0.034 0-3.53 0-6.434 2.679-6.79 6.115l-0.002 0.029c-1.586 17.037-2.481 25.223-3.424 33.395l0.898-9.57c-11.947 104.653-14.609 132.847-9.489 226.304 0.956 17.34 0.819 56.183-2.321 65.058-4.56 12.835-7.57 27.673-8.38 43.094l-0.016 0.392c0 13.517-0.068 29.628-0.273 32.768-0.41 7.851-5.803 41.779-9.762 66.492-2.458 14.95-4.506 27.853-5.12 32.768-5.461 43.691-22.118 208.555-22.255 210.261-0.751 7.441-7.441 8.055-9.421 8.055-2.048 0-8.67-0.683-9.421-8.124-0.137-1.638-16.725-166.434-22.255-210.125-0.683-4.983-2.731-17.886-5.12-32.768-3.959-24.781-9.353-58.709-9.762-66.56-0.205-3.14-0.273-19.251-0.273-32.768 0-12.288-4.369-32.085-8.397-43.486-3.14-8.875-3.277-47.787-2.321-65.058 5.12-93.457 2.458-121.719-9.489-226.372l-2.594-23.757c-0.358-3.465-3.263-6.144-6.792-6.144-0.012 0-0.024 0-0.036 0h-62.599c-0.006 0-0.013 0-0.020 0-3.385 0-6.194 2.463-6.733 5.695l-0.005 0.040c-6.29 35.126-13.038 84.864-18.245 135.059l-0.87 10.349c-4.847 51.473-1.024 120.969 11.332 206.643 0.546 3.959 0.956 6.622 1.024 7.646 0.683 7.1 0.137 17.954 0 20.070-51.883 291.362-42.598 415.334-42.53 416.563 2.731 34.816 35.499 139.401 36.864 143.838 16.316 46.49 18.227 71.475 18.227 71.68 0.222 3.59 3.188 6.417 6.814 6.417 0.004 0 0.009 0 0.013 0h266.239c0.004 0 0.008 0 0.012 0 3.626 0 6.592-2.827 6.813-6.398l0.001-0.019c0-0.205 1.843-25.19 18.227-71.407 1.434-4.71 34.133-109.227 36.864-144.179 0.137-1.161 9.421-125.133-42.462-416.427-0.137-2.185-0.683-12.971 0-20.139l1.024-7.714c12.356-85.606 16.179-155.102 11.401-206.643-6.104-60.5-12.875-110.186-21.14-159.365l1.957 14.093c-0.515-3.304-3.341-5.803-6.749-5.803-0.003 0-0.006 0-0.009 0v0zM278.323-50.347h50.722c8.602 55.296 14.677 101.922 18.159 138.718 4.71 50.381 0.887 118.852-11.264 203.435-0.683 4.369-1.092 7.236-1.161 8.329-0.221 3.334-0.347 7.228-0.347 11.151 0 4.291 0.151 8.548 0.448 12.764l-0.032-0.567c51.678 289.929 42.53 412.262 42.394 413.423-2.594 33.451-35.908 139.878-36.181 140.902-7.597 19.522-13.956 42.565-17.995 66.397l-0.3 2.143h-253.952c-4.316-26.049-10.652-49.165-19.067-71.256l0.84 2.511c-0.273-0.819-33.587-107.247-36.181-140.629-0.137-1.229-9.148-123.972 42.394-413.491l0.137-0.751c0-0.546 0.819-13.653 0-22.528l-1.161-8.397c-12.22-84.514-15.974-152.986-11.332-203.435 3.413-36.864 9.557-83.49 18.159-138.718h50.722l1.911 17.818c12.151 105.813 14.541 131.413 9.421 224.051-0.478 8.26-1.843 56.457 3.14 70.383 4.096 11.605 7.509 29.355 7.509 38.912 0 9.762 0.137 29.355 0.341 33.451 0.41 8.67 5.461 40.141 9.967 67.994 2.389 14.814 4.437 27.648 4.983 32.358 5.461 43.554 22.118 208.213 22.255 209.852 1.638 16.111 15.701 20.412 22.938 20.412 7.305 0 21.436-4.301 23.074-20.48 0.137-1.638 16.725-166.229 22.187-209.783 0.614-4.779 2.731-17.545 5.052-32.427 4.437-27.785 9.557-59.255 9.967-67.925 0.205-4.096 0.273-23.689 0.273-33.451 0-9.557 3.413-27.307 7.509-38.912 4.983-13.926 3.618-62.123 3.209-70.383-5.12-92.57-2.731-118.238 9.353-224.051l2.048-17.818z" />
<glyph unicode="&#xe92f;" glyph-name="bottom_high" horiz-adv-x="350" d="M324.608-64h-119.808c-0.002 0-0.004 0-0.005 0-3.674 0-6.67 2.903-6.821 6.54v0.014l-14.609 393.762c-1.843 47.377-5.393 118.784-8.602 180.907-3.209-62.123-6.69-133.53-8.602-180.907l-14.609-393.353v-0.137c0-3.77-3.056-6.827-6.827-6.827v0h-119.808c0 0-0.001 0-0.001 0-3.722 0-6.749 2.979-6.825 6.683v0.007l-8.875 393.762c-13.517 339.695-8.192 387.891-7.987 389.734 1.57 24.576 19.866 84.105 34.679 132.028 7.714 25.054 15.701 50.995 15.838 55.364 0 3.891-0.41 27.102-1.092 39.185-0.008 0.122-0.012 0.266-0.012 0.41 0 3.77 3.056 6.827 6.827 6.827 0.004 0 0.009 0 0.013 0h234.563c0.004 0 0.008 0 0.012 0 3.77 0 6.827-3.056 6.827-6.827 0-0.144-0.004-0.287-0.013-0.429l0.001 0.019c-0.683-11.947-1.092-35.294-1.092-39.185 0.205-4.369 8.192-30.31 15.906-55.296 14.746-47.991 33.109-107.588 34.679-132.437 0.137-1.502 5.461-49.698-8.055-389.53l-8.875-393.626c-0.077-3.711-3.103-6.69-6.825-6.69 0 0-0.001 0-0.001 0v0zM211.354-50.347h106.633l8.67 387.072c13.38 336.555 8.329 385.911 8.055 387.823-1.502 23.689-20.343 84.924-34.133 129.707-11.947 38.775-16.452 53.931-16.452 59.324 0 3.413 0.273 20.070 0.751 32.768h-220.228c0.478-12.766 0.751-29.355 0.751-32.768 0-5.393-4.506-20.48-16.452-59.392-13.79-44.715-32.631-105.95-34.133-129.229-0.273-2.321-5.325-51.61 8.055-388.096l8.738-387.209h106.496l14.404 387.14c3.959 100.352 15.428 307.61 15.428 309.726 0 3.77 3.056 6.827 6.827 6.827s6.827-3.056 6.827-6.827v0c0.137-2.116 11.469-209.374 15.428-309.658l14.336-387.209z" />
<glyph unicode="&#xe930;" glyph-name="invisible_button_fly" horiz-adv-x="198" d="M144.794-64c-5.655 0-10.24 4.585-10.24 10.24v0 1003.52c0 5.655 4.585 10.24 10.24 10.24s10.24-4.585 10.24-10.24v0-1003.52c0-5.655-4.585-10.24-10.24-10.24v0zM144.794-0.41c-4.242 0-7.68 3.438-7.68 7.68v0c0 50.586 8.499 101.069 23.347 138.445 13.619 34.406 19.558 105.882 19.661 106.598l2.56 697.446c0 4.198 3.277 7.885 7.68 7.68 4.301 0 7.68-3.482 7.68-7.782l-2.56-697.958c-0.307-3.686-6.349-75.162-20.787-111.616-14.131-35.635-22.221-84.070-22.221-132.813 0-4.301-3.482-7.68-7.68-7.68zM144.794 158.72h-0.41c-0.307 0-6.451 0.41-16.179 2.048-3.638 0.657-6.362 3.799-6.362 7.578 0 4.249 3.445 7.694 7.694 7.694 0.47 0 0.931-0.042 1.378-0.123l-0.047 0.007c8.704-1.536 14.234-1.843 14.336-1.843 4.154-0.114 7.478-3.509 7.478-7.68 0-4.243-3.44-7.683-7.683-7.683-0.072 0-0.144 0.001-0.215 0.003h0.011zM90.214 172.032c-1.024 0-2.048 0.205-2.97 0.614-10.24 4.301-19.763 9.421-28.365 15.155-2.069 1.404-3.41 3.746-3.41 6.4 0 4.259 3.452 7.711 7.711 7.711 1.604 0 3.094-0.49 4.328-1.328l-0.027 0.017c7.782-5.222 16.384-9.933 25.702-13.722 2.908-1.137 4.931-3.918 4.931-7.171 0-4.242-3.438-7.68-7.68-7.68-0.078 0-0.155 0.001-0.232 0.003h0.011zM33.382 214.426c-2.504 0-4.728 1.198-6.13 3.053l-0.014 0.019c-6.256 8.162-11.685 17.472-15.87 27.433l-0.309 0.83c-0.507 0.997-0.805 2.175-0.805 3.422 0 4.242 3.438 7.68 7.68 7.68 3.34 0 6.182-2.132 7.239-5.109l0.017-0.054c3.686-9.011 8.499-17.408 14.336-24.883 1.007-1.287 1.614-2.928 1.614-4.711 0-4.242-3.438-7.68-7.68-7.68-0.028 0-0.055 0-0.083 0h0.004zM8.499 280.678c-3.96 0.037-7.202 3.065-7.575 6.932l-0.002 0.031c-0.614 5.837-0.922 11.981-0.922 18.227v13.312c0 4.242 3.438 7.68 7.68 7.68s7.68-3.438 7.68-7.68v0-13.312c0-5.734 0.307-11.264 0.819-16.691 0.028-0.246 0.044-0.531 0.044-0.819 0-4.242-3.438-7.68-7.68-7.68-0.015 0-0.031 0-0.046 0h0.002zM7.68 352.358c0 0 0 0-0.001 0-4.242 0-7.68 3.438-7.68 7.68 0 0.036 0 0.072 0.001 0.108v-0.005 30.72c0 4.242 3.438 7.68 7.68 7.68s7.68-3.438 7.68-7.68v0-30.72c0-4.301-3.482-7.68-7.68-7.68zM7.68 424.141c-4.242 0-7.68 3.438-7.68 7.68v0 30.72c0 4.242 3.438 7.68 7.68 7.68s7.68-3.438 7.68-7.68v0-30.72c0-4.198-3.482-7.68-7.68-7.68zM7.68 495.923c-4.242 0-7.68 3.438-7.68 7.68v0 30.72c0 4.242 3.438 7.68 7.68 7.68s7.68-3.438 7.68-7.68v0-30.72c0-4.198-3.482-7.68-7.68-7.68zM7.68 567.603c0 0 0 0-0.001 0-4.242 0-7.68 3.438-7.68 7.68 0 0.036 0 0.072 0.001 0.108v-0.005 30.72c0 4.242 3.438 7.68 7.68 7.68s7.68-3.438 7.68-7.68v0-30.72c0-4.198-3.482-7.68-7.68-7.68zM7.68 639.488c-4.242 0-7.68 3.438-7.68 7.68v0 30.72c0 4.242 3.438 7.68 7.68 7.68s7.68-3.438 7.68-7.68v0-30.72c0-4.301-3.482-7.68-7.68-7.68zM7.68 711.168c-4.242 0-7.68 3.438-7.68 7.68v0 30.72c0 4.242 3.438 7.68 7.68 7.68s7.68-3.438 7.68-7.68v0-30.72c0-4.198-3.482-7.68-7.68-7.68zM7.68 782.95c-4.242 0-7.68 3.438-7.68 7.68v0 30.72c0 4.242 3.438 7.68 7.68 7.68s7.68-3.438 7.68-7.68v0-30.72c0-4.198-3.482-7.68-7.68-7.68zM7.68 854.63c0 0 0 0-0.001 0-4.242 0-7.68 3.438-7.68 7.68 0 0.036 0 0.072 0.001 0.108v-0.005 30.72c0 4.242 3.438 7.68 7.68 7.68s7.68-3.438 7.68-7.68v0-30.72c0-4.198-3.482-7.68-7.68-7.68zM7.68 926.72c-4.242 0-7.68 3.438-7.68 7.68v0 15.36c0 4.242 3.438 7.68 7.68 7.68s7.68-3.438 7.68-7.68v0-15.36c0-4.198-3.482-7.68-7.68-7.68zM186.982 158.72h-52.019c-4.242 0-7.68 3.438-7.68 7.68s3.438 7.68 7.68 7.68v0h51.917c4.242 0 7.68-3.438 7.68-7.68s-3.438-7.68-7.68-7.68v0zM138.854 775.578c-0.040-0.001-0.087-0.001-0.134-0.001-3.393 0-6.144 2.751-6.144 6.144 0 2.709 1.753 5.008 4.187 5.826l0.043 0.013 5.12 2.048v6.656c0 3.393 2.751 6.144 6.144 6.144s6.144-2.751 6.144-6.144v0-13.824l-3.072-1.843c-3.277-1.843-6.861-3.379-10.342-4.608-0.605-0.235-1.306-0.383-2.037-0.409h-0.011zM148.070 812.442c-3.393 0-6.144 2.751-6.144 6.144v0 22.426c0 3.393 2.751 6.144 6.144 6.144s6.144-2.751 6.144-6.144v0-22.426c0-3.393-2.751-6.144-6.144-6.144v0zM148.070 857.293c-3.393 0-6.144 2.751-6.144 6.144v0 6.451c-1.348 0.656-3.041 1.349-4.779 1.946l-0.341 0.102c-2.465 0.84-4.207 3.135-4.207 5.837 0 3.398 2.755 6.153 6.153 6.153 0.696 0 1.365-0.116 1.989-0.329l-0.043 0.013c3.584-1.229 7.066-2.765 10.445-4.71l3.072-1.741v-13.824c0-3.393-2.751-6.144-6.144-6.144v0zM117.555 773.325h-0.614c-8.384 0.952-15.984 3.609-22.682 7.617l0.256-0.142c-1.501 1.133-2.461 2.913-2.461 4.917 0 3.393 2.751 6.144 6.144 6.144 0.89 0 1.736-0.189 2.5-0.53l-0.039 0.016c5.427-3.072 11.366-5.12 17.613-5.734 3.241-0.195 5.796-2.871 5.796-6.144 0-3.399-2.755-6.154-6.154-6.154-0.126 0-0.251 0.004-0.375 0.011l0.017-0.001zM82.125 794.010c-0.008 0-0.018 0-0.027 0-2.048 0-3.862 1.002-4.978 2.542l-0.012 0.018c-4.463 6.085-7.776 13.307-9.457 21.136l-0.066 0.368c-0.085 0.385-0.134 0.827-0.134 1.28 0 3.411 2.765 6.176 6.176 6.176 2.957 0 5.429-2.079 6.034-4.855l0.007-0.041c1.229-6.144 3.686-11.776 7.373-16.794 0.767-1.014 1.229-2.296 1.229-3.686 0-3.393-2.751-6.144-6.144-6.144v0zM73.626 834.253c-0.013 0-0.028 0-0.044 0-3.393 0-6.144 2.751-6.144 6.144 0 0.472 0.053 0.931 0.154 1.373l-0.008-0.041c1.819 8.209 5.198 15.426 9.835 21.654l-0.107-0.15c1.096 1.784 3.037 2.956 5.252 2.956 3.393 0 6.144-2.751 6.144-6.144 0-1.522-0.554-2.915-1.47-3.989l0.007 0.008c-3.686-5.12-6.246-10.854-7.578-16.896-0.592-2.824-3.062-4.915-6.020-4.915-0.008 0-0.015 0-0.023 0h0.001zM97.894 867.533c-0.002 0-0.004 0-0.007 0-3.393 0-6.144 2.751-6.144 6.144 0 2.265 1.226 4.244 3.050 5.309l0.029 0.016c6.861 3.994 14.438 6.451 22.426 7.168 0.184 0.020 0.398 0.031 0.614 0.031 3.41 0 6.175-2.764 6.175-6.175 0-3.194-2.425-5.821-5.534-6.142l-0.026-0.002c-6.144-0.512-12.083-2.458-17.51-5.53-1.024-0.614-2.048-0.819-3.072-0.819zM141.926 775.373v108.749l9.216-5.12c17.231-9.916 28.671-28.187 28.774-49.137v-0.015c-0.081-20.971-11.528-39.251-28.499-49.006l-0.276-0.146-9.216-5.325zM154.214 861.389v-63.181c8.243 7.998 13.371 19.165 13.414 31.531v0.008c0 11.981-4.915 23.347-13.312 31.539zM138.854 593.101c-0.175-0.018-0.378-0.028-0.584-0.028-3.393 0-6.144 2.751-6.144 6.144 0 2.873 1.973 5.286 4.638 5.958l0.042 0.009c1.741 0.512 3.482 1.229 5.12 2.048v6.554c0 3.393 2.751 6.144 6.144 6.144s6.144-2.751 6.144-6.144v0-13.824l-3.072-1.741c-3.277-1.946-6.861-3.482-10.342-4.71-0.588-0.195-1.265-0.308-1.969-0.308-0.028 0-0.056 0-0.084 0.001h0.004zM148.070 629.965c-3.393 0-6.144 2.751-6.144 6.144v22.528c0 3.393 2.751 6.144 6.144 6.144s6.144-2.751 6.144-6.144v0-22.426c0-3.393-2.751-6.144-6.144-6.144v0zM148.070 674.816c-3.393 0-6.144 2.751-6.144 6.144v0 6.451c-1.354 0.66-3.047 1.353-4.785 1.948l-0.335 0.1c-2.448 0.855-4.172 3.145-4.172 5.837 0 3.407 2.762 6.169 6.169 6.169 0.715 0 1.401-0.122 2.040-0.345l-0.043 0.013c3.482-1.126 6.963-2.765 10.24-4.608l3.174-1.843v-13.722c0-3.393-2.751-6.144-6.144-6.144v0zM117.658 590.848h-0.717c-8.384 0.952-15.984 3.609-22.682 7.617l0.256-0.142c-1.851 1.082-3.075 3.061-3.075 5.325 0 3.395 2.752 6.147 6.147 6.147 1.131 0 2.191-0.305 3.101-0.838l-0.029 0.016c5.53-3.174 11.366-5.12 17.613-5.837 3.263-0.168 5.844-2.855 5.844-6.144 0-3.397-2.754-6.152-6.152-6.152-0.108 0-0.215 0.003-0.322 0.008l0.015-0.001zM82.125 611.635c-0.008 0-0.018 0-0.027 0-2.048 0-3.862 1.002-4.978 2.542l-0.012 0.018c-4.466 6.084-7.78 13.306-9.457 21.136l-0.066 0.368c-0.079 0.369-0.124 0.794-0.124 1.229 0 3.405 2.76 6.165 6.165 6.165 2.97 0 5.45-2.1 6.035-4.896l0.007-0.040c1.229-6.144 3.686-11.776 7.373-16.794 0.721-0.994 1.154-2.239 1.154-3.584 0-3.367-2.708-6.101-6.065-6.144h-0.004zM73.728 651.776c-0.512 0-0.922 0-1.331 0.205-2.788 0.62-4.842 3.072-4.842 6.005 0 0.448 0.048 0.885 0.139 1.306l-0.007-0.040c1.638 7.782 4.915 15.053 9.626 21.504 1.096 1.784 3.037 2.956 5.252 2.956 3.393 0 6.144-2.751 6.144-6.144 0-1.522-0.554-2.915-1.47-3.989l0.007 0.008c-3.542-4.776-6.177-10.449-7.524-16.605l-0.053-0.291c-0.586-2.798-3.014-4.876-5.935-4.915h-0.004zM97.894 685.056c-0.002 0-0.004 0-0.007 0-3.393 0-6.144 2.751-6.144 6.144 0 2.265 1.226 4.244 3.050 5.309l0.029 0.016c6.861 3.994 14.336 6.451 22.426 7.168 0.165 0.016 0.357 0.025 0.551 0.025 3.149 0 5.745-2.37 6.102-5.423l0.003-0.029c0.016-0.165 0.025-0.357 0.025-0.551 0-3.149-2.37-5.745-5.423-6.102l-0.029-0.003c-6.144-0.717-12.083-2.662-17.51-5.734-1.024-0.614-2.048-0.819-3.072-0.819zM141.926 592.998v108.646l9.216-5.222c17.231-9.916 28.671-28.187 28.774-49.137v-0.015c-0.081-20.971-11.528-39.251-28.499-49.006l-0.276-0.146-9.216-5.222zM154.214 678.912v-63.078c8.243 7.998 13.371 19.165 13.414 31.531v0.008c0 11.878-4.915 23.245-13.312 31.539zM141.926 409.805v108.749l9.216-5.325c17.231-9.916 28.671-28.187 28.774-49.137v-0.015c-0.081-20.971-11.528-39.251-28.499-49.006l-0.276-0.146-9.216-5.12zM154.214 495.718v-63.078c8.243 7.998 13.371 19.165 13.414 31.531v0.008c0 11.878-4.915 23.245-13.312 31.539zM138.854 410.010c-0.040-0.001-0.087-0.001-0.134-0.001-3.393 0-6.144 2.751-6.144 6.144 0 2.709 1.753 5.008 4.187 5.826l0.043 0.013c1.741 0.512 3.482 1.229 5.12 2.048v6.554c0 3.393 2.751 6.144 6.144 6.144s6.144-2.751 6.144-6.144v0-13.824l-3.072-1.741c-3.277-1.946-6.861-3.482-10.342-4.71-0.588-0.195-1.265-0.308-1.969-0.308-0.028 0-0.056 0-0.084 0.001h0.004zM148.070 446.771c-3.393 0-6.144 2.751-6.144 6.144v22.426c0 3.393 2.751 6.144 6.144 6.144s6.144-2.751 6.144-6.144v0-22.426c0-3.393-2.751-6.144-6.144-6.144v0zM148.070 491.52c-3.393 0-6.144 2.751-6.144 6.144v6.554c-1.348 0.656-3.041 1.349-4.779 1.946l-0.341 0.102c-2.465 0.84-4.207 3.135-4.207 5.837 0 3.398 2.755 6.153 6.153 6.153 0.696 0 1.365-0.116 1.989-0.329l-0.043 0.013c3.584-1.126 7.066-2.765 10.445-4.608l3.072-1.843v-13.824c0-3.393-2.751-6.144-6.144-6.144v0zM117.555 407.757h-0.614c-8.376 0.918-15.979 3.541-22.686 7.516l0.261-0.143c-1.851 1.082-3.075 3.061-3.075 5.325 0 3.395 2.752 6.147 6.147 6.147 1.131 0 2.191-0.305 3.101-0.838l-0.029 0.016c5.427-3.174 11.366-5.12 17.613-5.837 3.241-0.195 5.796-2.871 5.796-6.144 0-3.399-2.755-6.154-6.154-6.154-0.126 0-0.251 0.004-0.375 0.011l0.017-0.001zM82.125 428.442c-0.008 0-0.018 0-0.027 0-2.048 0-3.862 1.002-4.978 2.542l-0.012 0.018c-4.463 6.085-7.776 13.307-9.457 21.136l-0.066 0.368c-0.085 0.385-0.134 0.827-0.134 1.28 0 3.411 2.765 6.176 6.176 6.176 2.957 0 5.429-2.079 6.034-4.855l0.007-0.041c1.229-6.144 3.686-11.776 7.373-16.896 0.721-0.994 1.154-2.239 1.154-3.584 0-3.367-2.708-6.101-6.065-6.144h-0.004zM73.626 468.582c-0.013 0-0.028 0-0.044 0-3.393 0-6.144 2.751-6.144 6.144 0 0.472 0.053 0.931 0.154 1.373l-0.008-0.041c1.819 8.209 5.198 15.426 9.835 21.654l-0.107-0.15c1.096 1.784 3.037 2.956 5.252 2.956 3.393 0 6.144-2.751 6.144-6.144 0-1.522-0.554-2.915-1.47-3.989l0.007 0.008c-3.686-5.12-6.246-10.752-7.578-16.896-0.592-2.824-3.062-4.915-6.020-4.915-0.008 0-0.015 0-0.023 0h0.001zM97.894 501.862c-0.002 0-0.004 0-0.007 0-3.393 0-6.144 2.751-6.144 6.144 0 2.265 1.226 4.244 3.050 5.309l0.029 0.016c6.861 3.994 14.438 6.451 22.426 7.168 0.184 0.020 0.398 0.031 0.614 0.031 3.41 0 6.175-2.764 6.175-6.175 0-3.194-2.425-5.821-5.534-6.142l-0.026-0.002c-6.144-0.512-12.083-2.355-17.51-5.53-1.024-0.512-2.048-0.819-3.072-0.819zM138.854 232.243c-0.040-0.001-0.087-0.001-0.134-0.001-3.393 0-6.144 2.751-6.144 6.144 0 2.709 1.753 5.008 4.187 5.826l0.043 0.013 5.12 2.048v6.554c0 3.393 2.751 6.144 6.144 6.144s6.144-2.751 6.144-6.144v0-13.824l-3.072-1.741c-3.277-1.946-6.861-3.482-10.342-4.71-0.588-0.195-1.265-0.308-1.969-0.308-0.028 0-0.056 0-0.084 0.001h0.004zM148.070 269.107c-3.393 0-6.144 2.751-6.144 6.144v0 22.323c0 3.393 2.751 6.144 6.144 6.144s6.144-2.751 6.144-6.144v0-22.323c0-3.393-2.751-6.144-6.144-6.144v0zM148.070 313.856c-3.393 0-6.144 2.751-6.144 6.144v6.554c-1.348 0.656-3.041 1.349-4.779 1.946l-0.341 0.102c-2.465 0.84-4.207 3.135-4.207 5.837 0 3.398 2.755 6.153 6.153 6.153 0.696 0 1.365-0.116 1.989-0.329l-0.043 0.013c3.584-1.229 7.066-2.765 10.445-4.71l3.072-1.741v-13.824c0-3.393-2.751-6.144-6.144-6.144v0zM117.555 229.99h-0.614c-8.376 0.918-15.979 3.541-22.686 7.516l0.261-0.143c-1.851 1.082-3.075 3.061-3.075 5.325 0 3.395 2.752 6.147 6.147 6.147 1.131 0 2.191-0.305 3.101-0.838l-0.029 0.016c5.427-3.174 11.366-5.12 17.613-5.837 3.241-0.195 5.796-2.871 5.796-6.144 0-3.399-2.755-6.154-6.154-6.154-0.126 0-0.251 0.004-0.375 0.011l0.017-0.001zM82.125 250.675c-0.008 0-0.018 0-0.027 0-2.048 0-3.862 1.002-4.978 2.542l-0.012 0.018c-4.463 6.085-7.776 13.307-9.457 21.136l-0.066 0.368c-0.085 0.385-0.134 0.827-0.134 1.28 0 3.411 2.765 6.176 6.176 6.176 2.957 0 5.429-2.079 6.034-4.855l0.007-0.041c1.229-6.144 3.686-11.776 7.373-16.896 0.721-0.994 1.154-2.239 1.154-3.584 0-3.367-2.708-6.101-6.065-6.144h-0.004zM73.626 290.918c-0.013 0-0.028 0-0.044 0-3.393 0-6.144 2.751-6.144 6.144 0 0.472 0.053 0.931 0.154 1.373l-0.008-0.041c1.819 8.209 5.198 15.426 9.835 21.654l-0.107-0.15c1.134 1.328 2.81 2.164 4.681 2.164 3.393 0 6.144-2.751 6.144-6.144 0-1.178-0.332-2.279-0.907-3.215l0.015 0.027c-3.686-5.12-6.246-10.854-7.578-16.998-0.631-2.774-3.077-4.813-5.998-4.813-0.015 0-0.031 0-0.046 0h0.002zM97.894 324.096c-0.002 0-0.004 0-0.007 0-3.393 0-6.144 2.751-6.144 6.144 0 2.265 1.226 4.244 3.050 5.309l0.029 0.016c6.861 4.096 14.438 6.451 22.426 7.27 0.196 0.022 0.423 0.035 0.652 0.035 3.153 0 5.751-2.375 6.103-5.433l0.003-0.028c0.021-0.193 0.034-0.416 0.034-0.642 0-3.189-2.429-5.81-5.538-6.114l-0.025-0.002c-6.144-0.614-12.083-2.56-17.51-5.734-1.024-0.512-2.048-0.819-3.072-0.819zM141.926 232.038v108.749l9.216-5.222c17.231-9.916 28.671-28.187 28.774-49.137v-0.015c-0.081-20.971-11.528-39.251-28.499-49.006l-0.276-0.146-9.216-5.222zM154.214 317.952v-63.078c8.243 7.998 13.371 19.165 13.414 31.531v0.008c0 11.981-4.915 23.245-13.312 31.539z" />
<glyph unicode="&#xe931;" glyph-name="invisible_zip_fly" horiz-adv-x="207" d="M175.411-64c-5.655 0-10.24 4.585-10.24 10.24v0 1003.52c0 5.655 4.585 10.24 10.24 10.24s10.24-4.585 10.24-10.24v0-1003.52c0-5.655-4.585-10.24-10.24-10.24v0zM152.371-59.904c-3.393 0-6.144 2.751-6.144 6.144v0 15.36c0 3.393 2.751 6.144 6.144 6.144s6.144-2.751 6.144-6.144v0-15.36c0-3.393-2.751-6.144-6.144-6.144v0zM152.371-13.107c-3.393 0-6.144 2.751-6.144 6.144v0 31.334c0 3.393 2.751 6.144 6.144 6.144s6.144-2.751 6.144-6.144v0-31.437c0-3.393-2.751-6.144-6.144-6.144v0zM152.371 49.562c-3.393 0-6.144 2.751-6.144 6.144v0 31.437c0 3.393 2.751 6.144 6.144 6.144s6.144-2.751 6.144-6.144v0-31.437c0-3.393-2.751-6.144-6.144-6.144v0zM152.371 112.333c-3.393 0-6.144 2.751-6.144 6.144v0 31.539c0 3.393 2.751 6.144 6.144 6.144s6.144-2.751 6.144-6.144v0-31.437c0-3.393-2.751-6.144-6.144-6.144v0zM152.371 175.104c-3.393 0-6.144 2.751-6.144 6.144v0 31.437c0 3.393 2.751 6.144 6.144 6.144s6.144-2.751 6.144-6.144v0-31.437c0-3.393-2.751-6.144-6.144-6.144v0zM152.371 237.875c-3.393 0-6.144 2.751-6.144 6.144v0 31.334c0 3.393 2.751 6.144 6.144 6.144s6.144-2.751 6.144-6.144v0-31.334c0-3.393-2.751-6.144-6.144-6.144v0zM152.371 300.646c-3.393 0-6.144 2.751-6.144 6.144v31.334c0 3.393 2.751 6.144 6.144 6.144s6.144-2.751 6.144-6.144v0-31.334c0-3.393-2.751-6.144-6.144-6.144v0zM152.371 363.418c-3.393 0-6.144 2.751-6.144 6.144v0 31.334c0 3.393 2.751 6.144 6.144 6.144s6.144-2.751 6.144-6.144v0-31.334c0-3.393-2.751-6.144-6.144-6.144v0zM152.371 426.189c-3.393 0-6.144 2.751-6.144 6.144v31.334c0 3.393 2.751 6.144 6.144 6.144s6.144-2.751 6.144-6.144v0-31.334c0-3.393-2.751-6.144-6.144-6.144v0zM152.371 488.96c-3.393 0-6.144 2.751-6.144 6.144v0 31.334c0 3.393 2.751 6.144 6.144 6.144s6.144-2.751 6.144-6.144v0-31.334c0-3.393-2.751-6.144-6.144-6.144v0zM152.371 551.731c-3.393 0-6.144 2.751-6.144 6.144v31.334c0 3.393 2.751 6.144 6.144 6.144s6.144-2.751 6.144-6.144v0-31.334c0-3.393-2.751-6.144-6.144-6.144v0zM152.371 614.502c-3.393 0-6.144 2.751-6.144 6.144v0 31.334c0 3.393 2.751 6.144 6.144 6.144s6.144-2.751 6.144-6.144v0-31.334c0-3.393-2.751-6.144-6.144-6.144v0zM152.371 677.171c-3.393 0-6.144 2.751-6.144 6.144v0 31.437c0 3.393 2.751 6.144 6.144 6.144s6.144-2.751 6.144-6.144v0-31.437c0-3.393-2.751-6.144-6.144-6.144v0zM152.371 739.942c-3.393 0-6.144 2.751-6.144 6.144v0 31.437c0 3.393 2.751 6.144 6.144 6.144s6.144-2.751 6.144-6.144v0-31.437c0-3.393-2.751-6.144-6.144-6.144v0zM152.371 802.714c-3.393 0-6.144 2.751-6.144 6.144v0 31.437c0 3.393 2.751 6.144 6.144 6.144s6.144-2.751 6.144-6.144v0-31.437c0-3.393-2.751-6.144-6.144-6.144v0zM152.371 865.485c-3.393 0-6.144 2.751-6.144 6.144v0 31.437c0 3.393 2.751 6.144 6.144 6.144s6.144-2.751 6.144-6.144v0-31.437c0-3.393-2.751-6.144-6.144-6.144v0zM152.371 928.256c-3.393 0-6.144 2.751-6.144 6.144v0 15.36c0 3.393 2.751 6.144 6.144 6.144s6.144-2.751 6.144-6.144v0-15.36c0-3.393-2.751-6.144-6.144-6.144v0zM144.691 158.72h-0.41c-0.205 0-6.451 0.41-16.077 2.048-3.658 0.635-6.405 3.785-6.405 7.578 0 4.244 3.441 7.685 7.685 7.685 0.452 0 0.895-0.039 1.326-0.114l-0.046 0.007c8.704-1.536 14.336-1.843 14.336-1.843 4.154-0.114 7.478-3.509 7.478-7.68 0-4.243-3.44-7.683-7.683-7.683-0.072 0-0.144 0.001-0.215 0.003h0.011zM90.214 172.032c-1.024 0-2.048 0.205-2.97 0.614-10.24 4.301-19.763 9.421-28.467 15.258-2.249 1.367-3.729 3.803-3.729 6.586 0 4.242 3.438 7.68 7.68 7.68 1.756 0 3.375-0.59 4.669-1.581l-0.018 0.013c7.782-5.222 16.384-9.933 25.805-13.722 2.914-1.135 4.942-3.918 4.942-7.175 0-4.242-3.438-7.68-7.68-7.68-0.117 0-0.234 0.003-0.35 0.008l0.016-0.001zM33.28 214.426c-2.504 0-4.728 1.198-6.13 3.053l-0.014 0.019c-6.219 8.161-11.615 17.472-15.769 27.43l-0.308 0.832c-0.376 0.877-0.595 1.898-0.595 2.97 0 4.259 3.453 7.712 7.712 7.712 3.187 0 5.923-1.933 7.098-4.692l0.019-0.050c3.686-9.011 8.499-17.408 14.234-24.883 1.007-1.287 1.614-2.928 1.614-4.711 0-4.242-3.438-7.68-7.68-7.68-0.028 0-0.055 0-0.083 0h0.004zM8.499 280.678c-0.010 0-0.022 0-0.034 0-3.989 0-7.268 3.041-7.644 6.932l-0.002 0.031c-0.512 5.837-0.819 11.981-0.819 18.227v13.312c0 4.242 3.438 7.68 7.68 7.68s7.68-3.438 7.68-7.68v0-13.312c0-5.734 0.205-11.264 0.717-16.691 0.028-0.246 0.044-0.531 0.044-0.819 0-4.221-3.405-7.647-7.618-7.68h-0.003zM7.578 352.358c-4.198 0.057-7.578 3.474-7.578 7.679 0 0.036 0 0.072 0.001 0.109v-0.005 30.72c0 4.242 3.438 7.68 7.68 7.68s7.68-3.438 7.68-7.68v0-30.72c0-4.301-3.482-7.68-7.782-7.68zM7.578 424.243c-4.162 0.057-7.521 3.416-7.578 7.572v30.725c0 4.242 3.438 7.68 7.68 7.68s7.68-3.438 7.68-7.68v0-30.72c0-4.096-3.482-7.68-7.782-7.68zM7.578 495.923c-4.197 0.058-7.578 3.474-7.578 7.679 0 0 0 0 0 0.001v0 30.72c0 4.242 3.438 7.68 7.68 7.68s7.68-3.438 7.68-7.68v0-30.72c0-4.198-3.482-7.68-7.782-7.68zM7.578 567.603c-4.198 0.057-7.578 3.474-7.578 7.679 0 0.036 0 0.072 0.001 0.109v-0.005 30.72c0 4.242 3.438 7.68 7.68 7.68s7.68-3.438 7.68-7.68v0-30.72c0-4.198-3.482-7.68-7.782-7.68zM7.578 639.488c-4.197 0.058-7.578 3.474-7.578 7.679 0 0 0 0 0 0.001v0 30.72c0 4.242 3.438 7.68 7.68 7.68s7.68-3.438 7.68-7.68v0-30.72c0-4.301-3.482-7.68-7.782-7.68zM7.578 711.168c-4.197 0.058-7.578 3.474-7.578 7.679 0 0 0 0 0 0.001v0 30.72c0 4.242 3.438 7.68 7.68 7.68s7.68-3.438 7.68-7.68v0-30.72c0-4.096-3.482-7.68-7.782-7.68zM7.578 782.95c-4.197 0.058-7.578 3.474-7.578 7.679 0 0 0 0 0 0.001v0 30.72c0 4.242 3.438 7.68 7.68 7.68s7.68-3.438 7.68-7.68v0-30.72c0-4.198-3.482-7.68-7.782-7.68zM7.578 854.733c-4.197 0.058-7.578 3.474-7.578 7.679 0 0 0 0 0 0.001v0 30.72c0 4.242 3.438 7.68 7.68 7.68s7.68-3.438 7.68-7.68v0-30.72c0-4.198-3.482-7.68-7.782-7.68zM7.578 926.72c-4.197 0.058-7.578 3.474-7.578 7.679 0 0 0 0 0 0.001v0 15.36c0 4.242 3.438 7.68 7.68 7.68s7.68-3.438 7.68-7.68v0-15.36c0-4.198-3.482-7.68-7.782-7.68zM198.861 158.72h-52.019c-4.242 0-7.68 3.438-7.68 7.68s3.438 7.68 7.68 7.68v0h52.019c4.242 0 7.68-3.438 7.68-7.68s-3.438-7.68-7.68-7.68v0z" />
<glyph unicode="&#xe932;" glyph-name="mock_fly" horiz-adv-x="207" d="M175.411-64c-5.655 0-10.24 4.585-10.24 10.24v0 1003.52c0 5.655 4.585 10.24 10.24 10.24s10.24-4.585 10.24-10.24v0-1003.52c0-5.655-4.585-10.24-10.24-10.24v0zM152.371-59.904c-3.393 0-6.144 2.751-6.144 6.144v0 15.36c0 3.393 2.751 6.144 6.144 6.144s6.144-2.751 6.144-6.144v0-15.36c0-3.393-2.751-6.144-6.144-6.144v0zM152.371-13.107c-3.393 0-6.144 2.751-6.144 6.144v0 31.334c0 3.393 2.751 6.144 6.144 6.144s6.144-2.751 6.144-6.144v0-31.437c0-3.393-2.751-6.144-6.144-6.144v0zM152.371 49.562c-3.393 0-6.144 2.751-6.144 6.144v0 31.437c0 3.393 2.751 6.144 6.144 6.144s6.144-2.751 6.144-6.144v0-31.437c0-3.393-2.751-6.144-6.144-6.144v0zM152.371 112.333c-3.393 0-6.144 2.751-6.144 6.144v0 31.539c0 3.393 2.751 6.144 6.144 6.144s6.144-2.751 6.144-6.144v0-31.437c0-3.393-2.751-6.144-6.144-6.144v0zM152.371 175.104c-3.393 0-6.144 2.751-6.144 6.144v0 31.437c0 3.393 2.751 6.144 6.144 6.144s6.144-2.751 6.144-6.144v0-31.437c0-3.393-2.751-6.144-6.144-6.144v0zM152.371 237.875c-3.393 0-6.144 2.751-6.144 6.144v0 31.334c0 3.393 2.751 6.144 6.144 6.144s6.144-2.751 6.144-6.144v0-31.334c0-3.393-2.751-6.144-6.144-6.144v0zM152.371 300.646c-3.393 0-6.144 2.751-6.144 6.144v31.334c0 3.393 2.751 6.144 6.144 6.144s6.144-2.751 6.144-6.144v0-31.334c0-3.393-2.751-6.144-6.144-6.144v0zM152.371 363.418c-3.393 0-6.144 2.751-6.144 6.144v0 31.334c0 3.393 2.751 6.144 6.144 6.144s6.144-2.751 6.144-6.144v0-31.334c0-3.393-2.751-6.144-6.144-6.144v0zM152.371 426.189c-3.393 0-6.144 2.751-6.144 6.144v31.334c0 3.393 2.751 6.144 6.144 6.144s6.144-2.751 6.144-6.144v0-31.334c0-3.393-2.751-6.144-6.144-6.144v0zM152.371 488.96c-3.393 0-6.144 2.751-6.144 6.144v0 31.334c0 3.393 2.751 6.144 6.144 6.144s6.144-2.751 6.144-6.144v0-31.334c0-3.393-2.751-6.144-6.144-6.144v0zM152.371 551.731c-3.393 0-6.144 2.751-6.144 6.144v31.334c0 3.393 2.751 6.144 6.144 6.144s6.144-2.751 6.144-6.144v0-31.334c0-3.393-2.751-6.144-6.144-6.144v0zM152.371 614.502c-3.393 0-6.144 2.751-6.144 6.144v0 31.334c0 3.393 2.751 6.144 6.144 6.144s6.144-2.751 6.144-6.144v0-31.334c0-3.393-2.751-6.144-6.144-6.144v0zM152.371 677.171c-3.393 0-6.144 2.751-6.144 6.144v0 31.437c0 3.393 2.751 6.144 6.144 6.144s6.144-2.751 6.144-6.144v0-31.437c0-3.393-2.751-6.144-6.144-6.144v0zM152.371 739.942c-3.393 0-6.144 2.751-6.144 6.144v0 31.437c0 3.393 2.751 6.144 6.144 6.144s6.144-2.751 6.144-6.144v0-31.437c0-3.393-2.751-6.144-6.144-6.144v0zM152.371 802.714c-3.393 0-6.144 2.751-6.144 6.144v0 31.437c0 3.393 2.751 6.144 6.144 6.144s6.144-2.751 6.144-6.144v0-31.437c0-3.393-2.751-6.144-6.144-6.144v0zM152.371 865.485c-3.393 0-6.144 2.751-6.144 6.144v0 31.437c0 3.393 2.751 6.144 6.144 6.144s6.144-2.751 6.144-6.144v0-31.437c0-3.393-2.751-6.144-6.144-6.144v0zM152.371 928.256c-3.393 0-6.144 2.751-6.144 6.144v0 15.36c0 3.393 2.751 6.144 6.144 6.144s6.144-2.751 6.144-6.144v0-15.36c0-3.393-2.751-6.144-6.144-6.144v0zM144.691 158.72h-0.41c-0.205 0-6.451 0.41-16.077 2.048-3.658 0.635-6.405 3.785-6.405 7.578 0 4.244 3.441 7.685 7.685 7.685 0.452 0 0.895-0.039 1.326-0.114l-0.046 0.007c8.704-1.536 14.336-1.843 14.336-1.843 4.154-0.114 7.478-3.509 7.478-7.68 0-4.243-3.44-7.683-7.683-7.683-0.072 0-0.144 0.001-0.215 0.003h0.011zM90.214 172.032c-1.024 0-2.048 0.205-2.97 0.614-10.24 4.301-19.763 9.421-28.467 15.258-2.249 1.367-3.729 3.803-3.729 6.586 0 4.242 3.438 7.68 7.68 7.68 1.756 0 3.375-0.59 4.669-1.581l-0.018 0.013c7.782-5.222 16.384-9.933 25.805-13.722 2.914-1.135 4.942-3.918 4.942-7.175 0-4.242-3.438-7.68-7.68-7.68-0.117 0-0.234 0.003-0.35 0.008l0.016-0.001zM33.28 214.426c-2.504 0-4.728 1.198-6.13 3.053l-0.014 0.019c-6.219 8.161-11.615 17.472-15.769 27.43l-0.308 0.832c-0.376 0.877-0.595 1.898-0.595 2.97 0 4.259 3.453 7.712 7.712 7.712 3.187 0 5.923-1.933 7.098-4.692l0.019-0.050c3.686-9.011 8.499-17.408 14.234-24.883 1.007-1.287 1.614-2.928 1.614-4.711 0-4.242-3.438-7.68-7.68-7.68-0.028 0-0.055 0-0.083 0h0.004zM8.499 280.678c-0.010 0-0.022 0-0.034 0-3.989 0-7.268 3.041-7.644 6.932l-0.002 0.031c-0.512 5.837-0.819 11.981-0.819 18.227v13.312c0 4.242 3.438 7.68 7.68 7.68s7.68-3.438 7.68-7.68v0-13.312c0-5.734 0.205-11.264 0.717-16.691 0.028-0.246 0.044-0.531 0.044-0.819 0-4.221-3.405-7.647-7.618-7.68h-0.003zM7.578 352.358c-4.198 0.057-7.578 3.474-7.578 7.679 0 0.036 0 0.072 0.001 0.109v-0.005 30.72c0 4.242 3.438 7.68 7.68 7.68s7.68-3.438 7.68-7.68v0-30.72c0-4.301-3.482-7.68-7.782-7.68zM7.578 424.243c-4.162 0.057-7.521 3.416-7.578 7.572v30.725c0 4.242 3.438 7.68 7.68 7.68s7.68-3.438 7.68-7.68v0-30.72c0-4.096-3.482-7.68-7.782-7.68zM7.578 495.923c-4.197 0.058-7.578 3.474-7.578 7.679 0 0 0 0 0 0.001v0 30.72c0 4.242 3.438 7.68 7.68 7.68s7.68-3.438 7.68-7.68v0-30.72c0-4.198-3.482-7.68-7.782-7.68zM7.578 567.603c-4.198 0.057-7.578 3.474-7.578 7.679 0 0.036 0 0.072 0.001 0.109v-0.005 30.72c0 4.242 3.438 7.68 7.68 7.68s7.68-3.438 7.68-7.68v0-30.72c0-4.198-3.482-7.68-7.782-7.68zM7.578 639.488c-4.197 0.058-7.578 3.474-7.578 7.679 0 0 0 0 0 0.001v0 30.72c0 4.242 3.438 7.68 7.68 7.68s7.68-3.438 7.68-7.68v0-30.72c0-4.301-3.482-7.68-7.782-7.68zM7.578 711.168c-4.197 0.058-7.578 3.474-7.578 7.679 0 0 0 0 0 0.001v0 30.72c0 4.242 3.438 7.68 7.68 7.68s7.68-3.438 7.68-7.68v0-30.72c0-4.096-3.482-7.68-7.782-7.68zM7.578 782.95c-4.197 0.058-7.578 3.474-7.578 7.679 0 0 0 0 0 0.001v0 30.72c0 4.242 3.438 7.68 7.68 7.68s7.68-3.438 7.68-7.68v0-30.72c0-4.198-3.482-7.68-7.782-7.68zM7.578 854.733c-4.197 0.058-7.578 3.474-7.578 7.679 0 0 0 0 0 0.001v0 30.72c0 4.242 3.438 7.68 7.68 7.68s7.68-3.438 7.68-7.68v0-30.72c0-4.198-3.482-7.68-7.782-7.68zM7.578 926.72c-4.197 0.058-7.578 3.474-7.578 7.679 0 0 0 0 0 0.001v0 15.36c0 4.242 3.438 7.68 7.68 7.68s7.68-3.438 7.68-7.68v0-15.36c0-4.198-3.482-7.68-7.782-7.68zM198.861 158.72h-52.019c-4.242 0-7.68 3.438-7.68 7.68s3.438 7.68 7.68 7.68v0h52.019c4.242 0 7.68-3.438 7.68-7.68s-3.438-7.68-7.68-7.68v0z" />
</font>
</defs>
</svg>
